
        <svg xmlns="http://www.w3.org/2000/svg" xmlns:xlink="http://www.w3.org/1999/xlink" version="1.1" width="3285.714285714286" height="1152.939676856577" viewBox="0 0 3285.714285714286 1152.939676856577">
			
			<g transform="scale(14.285714285714283) translate(10, 10)">
				<defs id="SvgjsDefs3035"/><g id="SvgjsG3036" featureKey="nameFeature-0" transform="matrix(2.0022295392491656,0,0,2.0022295392491656,0.7826254925081298,-19.943888534676248)" fill="#fff"><path d="M10.156 33.125 q-0.2734375 0.1171875 -0.37109375 0.25390625 t-0.33203 0.21484 q-0.2734375 -0.234375 -0.64453125 -0.44921875 t-0.80078 -0.41016 t-0.83984 -0.41016 t-0.76172 -0.41016 q-0.546875 -0.3125 -0.9765625 -0.5078125 t-0.58594 -0.625 q-0.3125 -0.15625 -0.6640625 -0.37109375 t-0.66406 -0.44922 q-0.1171875 -0.0390625 -0.25390625 -0.09765625 t-0.25391 -0.019531 q-0.6640625 -0.3125 -1.171875 -0.64453125 t-0.70313 -0.64453 q-0.1171875 0 -0.3515625 -0.15625 t-0.50781 -0.35156 q-0.3125 -0.1953125 -0.6640625 -0.5078125 q0.625 -0.5078125 1.2109375 -0.9765625 q0.5078125 -0.390625 1.0546875 -0.80078125 t0.89844 -0.64453 q0.2734375 -0.1953125 0.625 -0.3125 t0.625 -0.3125 q0.46875 -0.3125 0.80078125 -0.68359375 t0.80078 -0.60547 q0.4296875 -0.234375 0.91796875 -0.5078125 t0.91797 -0.46875 q0.546875 -0.234375 1.171875 -0.68359375 t0.74219 -0.83984 q0.859375 0.234375 0.78125 1.09375 q-0.8984375 0.78125 -2.1484375 1.5234375 t-2.3828 1.4453 q-0.234375 0.15625 -0.390625 0.3125 t-0.39063 0.27344 q-0.8984375 0.546875 -1.89453125 1.015625 t-1.5039 1.1719 q0.546875 0.46875 1.38671875 0.95703125 t1.7383 0.95703 q1.25 0.6640625 2.5390625 1.54296875 t2.4219 1.4258 q0.390625 0.0390625 0.56640625 0.29296875 t0.058594 0.41016 z M23.828625000000002 10.898 q0.078125 0.546875 -0.29296875 1.26953125 t-0.68359 1.2695 q-0.078125 0.1953125 -0.13671875 0.37109375 t-0.17578 0.33203 q-0.46875 0.625 -0.546875 0.9765625 t-0.35156 0.58594 q-0.1171875 0.5078125 -0.25390625 0.9375 t-0.41016 0.74219 q0.0390625 0.1953125 -0.01953125 0.2734375 t-0.019531 0.23438 q-0.625 1.171875 -1.07421875 2.44140625 t-0.99609 2.5195 q-0.1953125 0.546875 -0.3125 1.171875 t-0.46875 1.0547 q-0.1171875 0.4296875 -0.2734375 0.859375 t-0.35156 0.78125 q-0.2734375 0.8984375 -0.46875 1.484375 t-0.50781 1.1328 q-0.1171875 0.625 -0.3515625 1.11328125 t-0.48828 0.97656 t-0.46875 0.99609 t-0.29297 1.1328 q-0.1953125 0.1953125 -0.3125 0.48828125 t-0.078125 0.72266 q-0.1953125 0.234375 -0.3125 0.52734375 t-0.21484 0.60547 t-0.21484 0.60547 t-0.3125 0.48828 q-0.1171875 0.8203125 -0.48828125 1.54296875 t-0.64453 1.4648 q-0.1953125 0 -0.33203125 -0.01953125 t-0.33203 -0.058594 q-0.078125 -0.15625 -0.15625 -0.234375 t-0.078125 -0.19531 q0.0390625 -0.1953125 0.15625 -0.21484375 t0.19531 -0.21484 q0.15625 -0.1953125 0.17578125 -0.390625 t0.17578 -0.27344 q-0.1171875 -0.546875 0.05859375 -0.68359375 t0.25391 -0.33203 q0.390625 -0.6640625 0.48828125 -1.38671875 t0.64453 -1.3477 q0.234375 -1.0546875 0.5078125 -1.7578125 t0.46875 -1.4844 q0.3125 -0.3125 0.48828125 -0.72265625 t0.33203 -0.83984 t0.3125 -0.83984 t0.46875 -0.72266 q-0.0390625 -0.234375 0.0390625 -0.390625 t0 -0.35156 q0.390625 -0.9765625 0.80078125 -1.9140625 t0.72266 -1.9531 q0.1171875 -0.390625 0.234375 -0.7421875 t0.3125 -0.70313 q0.1171875 -0.3515625 0.13671875 -0.56640625 t0.21484 -0.29297 q-0.0390625 -0.390625 0.1171875 -0.60546875 t0.15625 -0.56641 q0.3515625 -0.2734375 0.4296875 -0.83984375 t0.39063 -0.87891 q-0.0390625 -0.4296875 0.15625 -0.8984375 t0.39063 -0.82031 q-0.078125 -0.4296875 0.13671875 -0.625 t0.29297 -0.58594 q0.0390625 -0.078125 0.1171875 -0.25390625 t0.19531 -0.25391 q-0.0390625 -0.2734375 -0.01953125 -0.546875 t0.33203 -0.35156 q-0.15625 -0.0390625 -0.05859375 -0.33203125 t0.33203 -0.33203 q0.1171875 -0.6640625 0.3515625 -1.2890625 t0.46875 -1.2109 q0.1953125 0 0.3125 0.0390625 t0.27344 0.078125 q0.1953125 -0.2734375 0.3515625 -0.33203125 t0.50781 0.13672 z M29.37505 13.085999999999999 q-0.1171875 0.390625 -0.3125 0.46875 t-0.35156 -0.039063 l0.19531 -0.29297 t0.11719 -0.019531 z M54.491749999999996 35.3125 q-0.1171875 0.15625 -0.1171875 0.29296875 t-0.19531 0.25391 q0.078125 0.5078125 -0.17578125 0.87890625 t-0.13672 0.80078 q-0.46875 0.4296875 -0.6640625 0.703125 t-0.41016 0.52734 t-0.50781 0.44922 t-0.72266 0.19531 q-0.15625 0.15625 -0.234375 0.3515625 t-0.27344 0.27344 q-0.4296875 0.1171875 -0.91796875 0.0390625 t-0.99609 0.078125 q-0.78125 -0.234375 -1.3671875 -0.64453125 t-0.97656 -1.0742 q-0.15625 -0.0390625 -0.21484375 -0.1171875 t-0.21484 -0.11719 q-0.1953125 -0.46875 -0.52734375 -0.80078125 t-0.37109 -0.95703 q-0.3515625 -1.0546875 -0.4296875 -1.875 t-0.15625 -1.6016 q-0.1171875 -0.078125 -0.15625 -0.234375 t-0.11719 -0.3125 q0.1953125 -0.2734375 0.1953125 -0.60546875 t-0.058594 -0.66406 t-0.078125 -0.68359 t0.13672 -0.70313 q-0.1953125 -0.078125 -0.2734375 -0.1953125 t-0.23438 -0.23438 q0.078125 -0.2734375 0.13671875 -0.46875 t0.29297 -0.39063 q-0.078125 -0.15625 -0.01953125 -0.29296875 t-0.097656 -0.21484 q-0.3125 0.15625 -0.3515625 0.3515625 q-0.1953125 -0.078125 -0.3125 0.01953125 t-0.27344 0.019531 q0.1953125 -0.4296875 0.3125 -0.3125 q0.0390625 -0.5859375 0.21484375 -0.76171875 t0.44922 -0.097656 q-0.0390625 -0.3125 -0.2734375 -0.4296875 t-0.54688 -0.039063 q-0.1953125 -0.1953125 -0.13671875 -0.41015625 t0.13672 -0.41016 q-0.078125 -0.234375 -0.44921875 -0.37109375 t-0.64453 -0.29297 q-0.078125 -0.0390625 -0.1953125 -0.13671875 t-0.23438 -0.097656 q-0.3125 -0.0390625 -0.625 0.078125 t-0.60547 0.21484 t-0.54688 0.097656 t-0.44922 -0.27344 q-0.078125 0.078125 -0.1953125 0.078125 t-0.23438 0.039063 q-1.09375 -0.078125 -2.03125 -0.21484375 t-1.7188 0.13672 q-0.078125 0.234375 -0.01953125 0.4296875 t0.019531 0.46875 q0.1953125 0.0390625 0.3515625 -0.05859375 t0.35156 0.019531 q0.0390625 0.078125 -0.01953125 0.1953125 t0.019531 0.23438 q-0.390625 0.3125 -0.6640625 0.78125 t0.039063 0.89844 q0.2734375 -0.15625 0.3125 -0.09765625 t0.15625 0.019531 q-0.2734375 0.5859375 -0.48828125 0.78125 t-0.058594 0.625 l0.42969 0 q0 0.1953125 -0.078125 0.3515625 t-0.19531 0.3125 t-0.21484 0.33203 t-0.097656 0.41016 q0 0.4296875 0.09765625 0.87890625 t-0.058594 0.95703 q0.2734375 0.234375 0.25390625 0.33203125 t0.019531 0.29297 q-0.1171875 0.3125 -0.15625 0.5078125 t0 0.42969 q0.3515625 0.2734375 0.2734375 0.37109375 t0.078125 0.17578 q-0.1953125 0.078125 -0.21484375 0.17578125 t-0.17578 0.25391 q0.078125 0.3125 0.05859375 0.76171875 t-0.097656 0.76172 q0.1171875 0.3125 0.2734375 0.546875 t0.23438 0.625 q0.5078125 0.3515625 1.11328125 0.7421875 t1.3867 0.19531 q0.390625 0.15625 0.859375 0.17578125 t0.9375 0.019531 t0.91797 0.019531 t0.80078 0.13672 q0.0390625 0.234375 -0.05859375 0.2734375 t0.019531 0.23438 q-0.625 0.0390625 -1.19140625 0 t-1.2695 -0.039063 q-0.6640625 0.0390625 -1.1328125 0.0390625 t-0.85938 -0.078125 q-0.5078125 0.1953125 -1.15234375 0.15625 t-1.1914 -0.11719 q-0.1171875 0 -0.25390625 0.0390625 t-0.29297 0.039063 l-1.9141 0 q-0.1953125 0 -0.37109375 0.05859375 t-0.33203 0.058594 q-0.15625 -0.0390625 -0.29296875 -0.1171875 t-0.37109 0.039063 q-0.78125 -0.1953125 -1.7578125 -0.234375 t-1.8359 -0.039063 q-0.1953125 0 -0.46875 -0.0390625 t-0.46875 0 q-0.15625 0 -0.2734375 0.05859375 t-0.3125 -0.13672 q-0.46875 0.1171875 -1.11328125 0.21484375 t-1.0742 0.058594 q-0.15625 0.078125 -0.4296875 0.09765625 t-0.50781 -0.039063 t-0.37109 -0.23438 t-0.019531 -0.52734 q0.859375 -0.1171875 1.73828125 -0.1953125 t1.6797 -0.25391 t1.4844 -0.46875 t1.1523 -0.83984 q-0.1953125 -0.703125 0.0390625 -0.859375 t0.39063 -0.42969 q0.1171875 -0.859375 0.09765625 -1.71875 t-0.078125 -1.7383 t-0.11719 -1.7969 t-0.019531 -1.8555 q-0.1953125 -0.078125 -0.2734375 -0.234375 t-0.15625 -0.35156 q0.15625 -0.0390625 0.234375 -0.1171875 t0.19531 -0.15625 q0.0390625 -0.4296875 0.078125 -0.83984375 t-0.11719 -0.64453 q0.3125 -0.3515625 0.1953125 -0.83984375 t-0.039063 -0.95703 q0.2734375 -0.46875 0.21484375 -0.80078125 t0.019531 -0.64453 t0.078125 -0.85938 t0.078125 -0.9375 l0.11719 -0.35156 t-0.039063 -0.42969 q0 -0.7421875 0.1171875 -1.484375 t-0.11719 -1.3281 q-0.15625 0.15625 -0.37109375 0.33203125 t-0.52734 0.097656 q0 -0.6640625 0.390625 -0.8203125 t0.66406 -0.46875 q-0.078125 -0.3125 -0.078125 -0.52734375 t-0.23438 -0.33203 q0.078125 -0.1953125 0.05859375 -0.234375 t-0.17578 -0.19531 q0.1953125 -0.234375 0.33203125 -0.48828125 t0.058594 -0.76172 q-0.1953125 -0.0390625 -0.2734375 0.0390625 t-0.23438 0.039063 q0.15625 -0.4296875 0.41015625 -0.703125 t-0.019531 -0.70313 q-0.1171875 0.078125 -0.25390625 0.1171875 t-0.29297 0.11719 q-0.078125 -0.15625 0.1953125 -0.1953125 t0.3125 -0.11719 q-0.0390625 -0.2734375 -0.2734375 -0.15625 t-0.39063 0 q0.078125 -0.15625 0.21484375 -0.234375 t0.25391 -0.23438 q-0.0390625 -0.2734375 -0.390625 -0.3515625 q-0.390625 -0.078125 -0.33203125 -0.1953125 t0.13672 -0.23438 q-0.625 -0.390625 -1.40625 -0.390625 t-1.5625 -0.11719 q-0.234375 0.0390625 -0.546875 -0.01953125 t-0.58594 0.13672 q-0.3515625 -0.1171875 -0.46875 -0.1953125 t-0.23438 -0.19531 q0.078125 -0.1953125 0.09765625 -0.37109375 t0.17578 -0.25391 q1.25 0.1953125 2.32421875 0.234375 t2.1289 -0.078125 q0.3515625 0.1171875 0.80078125 0.13671875 t0.76172 -0.058594 q1.3671875 -0.1953125 2.83203125 -0.09765625 t2.9102 0.097656 t2.832 -0.058594 t2.5977 -0.25391 q0.3125 0.0390625 0.72265625 0.078125 t0.60547 -0.27344 q0.3515625 0.2734375 0.859375 0.3515625 t0.9375 0.039063 q0.1953125 0.234375 0.52734375 0.29296875 t0.66406 0.097656 t0.625 0.11719 t0.44922 0.35156 q0.625 0 1.1328125 0.1953125 t1.1328 0.27344 q0.5078125 0.46875 0.60546875 0.703125 t0.37109 0.3125 q0.2734375 0.4296875 0.625 0.80078125 t0.74219 0.56641 q0.15625 0.46875 0.3515625 0.68359375 t0.15625 0.72266 q0.078125 0.1953125 0.2734375 0.4296875 q0.0390625 0.5859375 0.15625 1.07421875 t-0.19531 0.99609 q0.078125 0.390625 -0.05859375 0.8984375 t-0.33203 0.78125 q-0.3125 0.8203125 -0.6640625 1.25 t-0.70313 0.82031 q-0.4296875 0.546875 -1.015625 0.99609375 t-1.1328 0.87891 q-0.9375 0.3515625 -1.97265625 0.5859375 t-2.0117 0.42969 q0.5078125 0.15625 1.1328125 0.3125 t1.25 0.19531 q0.1953125 0.3125 0.546875 0.48828125 t0.66406 0.41016 q0.0390625 0.1953125 0.17578125 0.3125 t0.33203 0.11719 q0.078125 0.3125 0.33203125 0.4296875 t0.48828 0.27344 q0 0.3515625 0.1953125 0.546875 q0.3125 1.328125 0.41015625 2.109375 t0.13672 1.7969 q-0.234375 0.546875 0.0390625 1.25 q0.1171875 1.015625 0.13671875 1.66015625 t0.21484 1.3477 q0.2734375 0.3125 0.234375 0.56640625 t0.19531 0.33203 q0.0390625 0.078125 0.1953125 0.13671875 t0.27344 0.13672 q0.15625 0.3515625 0.1171875 0.46875 t-0.15625 0.19531 q0.1953125 0.15625 0.33203125 0.25390625 t0.29297 0.21484 q0.3125 0 0.3515625 -0.25390625 t0.11719 -0.56641 q0.1171875 -0.5859375 0.1953125 -1.34765625 t-0.23438 -1.2695 q-0.078125 -0.546875 0.05859375 -1.09375 t0.44922 -0.85938 q0.3515625 -0.0390625 0.52734375 0.0390625 t0.3125 0.21484 t0.23438 0.29297 t0.25391 0.27344 q-0.1171875 0.390625 -0.13671875 0.87890625 t0.13672 0.83984 z M46.87475 11.602 q-0.4296875 -0.1953125 -0.76171875 0.05859375 t-0.56641 0.48828 q0.3125 -0.0390625 0.703125 -0.15625 t0.625 -0.39063 z M50.27375 13.594000000000001 q-0.4296875 -0.625 -0.99609375 -1.11328125 t-1.5039 -0.60547 q-0.1171875 0.1953125 -0.21484375 0.3515625 t-0.37109 0.19531 l-0.64453 0.52734 t-0.52734 0.25391 q0.1953125 0.3515625 0.29296875 0.21484375 t0.29297 -0.019531 q-0.1953125 0.1953125 -0.48828125 0.2734375 t-0.17578 0.39063 q0.078125 0.234375 0.2734375 0.21484375 t0.39063 -0.019531 q0 -0.3125 0.2734375 -0.3515625 t0.39063 -0.15625 q0.2734375 0.078125 0.390625 -0.15625 t0.3125 -0.35156 q0.15625 0.0390625 0.234375 -0.05859375 t0.13672 -0.19531 t0.13672 -0.15625 t0.19531 0.019531 q-0.3515625 0.46875 -0.76171875 0.8984375 t-0.87891 0.54688 q0 0.234375 -0.2734375 0.29296875 t-0.19531 0.25391 q0.1953125 -0.078125 0.25390625 -0.13671875 t0.29297 0.019531 q0.078125 -0.1953125 0.33203125 -0.234375 t0.48828 0 q-0.234375 0.15625 -0.33203125 0.15625 l-0.17578 0 q-0.4296875 0.4296875 -0.5859375 0.546875 t-0.42969 0.19531 q-0.078125 0.234375 -0.078125 0.46875 q0.390625 0.1171875 0.46875 -0.078125 t0.39063 -0.15625 q0.234375 -0.390625 0.625 -0.46875 t0.78125 -0.27344 q0.078125 -0.390625 0.44921875 -0.4296875 t0.64453 -0.15625 q-0.078125 -0.15625 -0.21484375 -0.21484375 t-0.29297 -0.13672 q-0.2734375 0.3515625 -0.2734375 0.37109375 t-0.039063 0.019531 q0.0390625 -0.390625 0.21484375 -0.41015625 t0.37109 -0.058594 q0.3125 -0.0390625 0.44921875 -0.13671875 t0.37109 -0.13672 z M47.10975 12.07 q-0.234375 -0.078125 -0.4296875 -0.01953125 t-0.37109 0.15625 t-0.35156 0.17578 t-0.37109 0 q-0.2734375 0.2734375 -0.1953125 0.7421875 q0.2734375 -0.0390625 0.4296875 -0.1953125 t0.39063 -0.11719 q-0.078125 -0.1171875 0.078125 -0.21484375 t0.3125 0.019531 q0.0390625 -0.3515625 0.234375 -0.3515625 t0.27344 -0.19531 z M45.50775 11.367 q-0.3125 -0.234375 -0.703125 -0.29296875 t-0.82031 -0.21484 q0.078125 0.3125 0.3515625 0.44921875 t0.39063 0.37109 q0.1953125 -0.078125 0.4296875 -0.13671875 t0.35156 -0.17578 z M52.070750000000004 17.969 q-0.15625 -0.1171875 -0.25390625 -0.05859375 t-0.29297 0.097656 q-0.2734375 0.1953125 -0.41015625 0.33203125 t-0.33203 0.25391 q-0.078125 -0.078125 -0.2734375 -0.078125 t-0.19531 0.15625 q-0.234375 0.234375 -0.3515625 0.3125 t-0.19531 0.23438 q0.234375 -0.078125 0.25390625 0.09765625 t0.21484 0.17578 q0.0390625 -0.1953125 0.17578125 -0.33203125 t0.019531 -0.29297 q0.4296875 0.078125 0.80078125 -0.13671875 t0.80078 -0.33203 q-0.0390625 -0.15625 -0.01953125 -0.21484375 t0.058594 -0.21484 z M52.10975 16.797 q0.0390625 -0.3125 -0.0390625 -0.546875 t-0.15625 -0.54688 q-0.546875 0.15625 -0.8984375 0.46875 t-0.78125 0.50781 q-0.2734375 0.1171875 -0.48828125 0.3125 t-0.33203 0 q0.5078125 -0.546875 0.78125 -0.859375 t0.66406 -0.54688 q0.2734375 0 0.4296875 -0.2734375 q0.1171875 -0.390625 0 -0.33203125 t-0.15625 -0.097656 q0.1953125 -0.5078125 -0.13671875 -0.72265625 t-0.72266 -0.097656 q-0.078125 0.3515625 -0.29296875 0.44921875 t-0.52734 0.17578 q-0.546875 0.390625 -0.76171875 0.60546875 t-0.60547 0.13672 q0.0390625 0.15625 -0.1171875 0.15625 t-0.27344 0.039063 q-0.234375 0.390625 -0.234375 0.33203125 t-0.078125 -0.019531 q0.1171875 0.2734375 0.234375 0.33203125 t0.3125 0.097656 q0.1171875 -0.234375 0.25390625 -0.21484375 t0.17578 -0.17578 q-0.078125 0.2734375 -0.234375 0.4296875 t-0.54688 0.078125 q-0.390625 0.078125 -0.52734375 0.05859375 t-0.17578 0.097656 q-0.3515625 0.546875 -0.234375 0.8203125 t-0.19531 0.35156 q0.2734375 0.3515625 0.1171875 0.625 q0.1953125 0.078125 0.3125 0.01953125 t0.23438 -0.13672 t0.21484 -0.11719 t0.29297 0.078125 q-0.1953125 -0.3125 0.15625 -0.41015625 t0.46875 -0.29297 q0.2734375 -0.1171875 0.4296875 -0.29296875 t0.39063 -0.29297 q0.234375 0.3515625 0.1953125 0.41015625 t-0.15625 0.019531 q-0.0390625 0.234375 -0.234375 0.33203125 t-0.41016 0.17578 t-0.39063 0.17578 t-0.17578 0.25391 q-0.234375 -0.078125 -0.41015625 0.0390625 t-0.41016 0.19531 q0.0390625 0.234375 -0.09765625 0.3515625 t-0.13672 0.50781 q0 0.15625 -0.09765625 0.21484375 t-0.17578 0.13672 q-0.2734375 0.3515625 -0.41015625 0.5859375 t-0.13672 0.70313 q0.234375 -0.1171875 0.2734375 -0.17578125 t0.11719 -0.058594 q-0.078125 -0.15625 0.01953125 -0.17578125 t0.21484 -0.019531 t0.25391 0.019531 t0.17578 -0.097656 q0.390625 -0.3125 0.859375 -0.72265625 t1.0547 -0.44922 q0.078125 -0.2734375 0.13671875 -0.33203125 t0.17578 -0.019531 q0.3515625 -0.625 0.8203125 -0.625 q0.0390625 -0.15625 0.25390625 -0.25390625 t0.41016 -0.21484 q0.0390625 -0.3125 0.078125 -0.37109375 t0.19531 -0.019531 q0.1171875 0.1171875 0.1953125 0.0390625 t0.17578 -0.11719 t0.11719 -0.097656 t-0.13672 -0.17578 q0.1953125 0.0390625 0.29296875 0.01953125 t0.25391 0.019531 q-0.0390625 -0.4296875 0.0390625 -0.41015625 t0.11719 -0.058594 z M51.64075 19.609 q-0.1953125 -0.15625 -0.41015625 0.01953125 t-0.41016 0.058594 q-0.3515625 0.5859375 -0.72265625 0.64453125 t-0.56641 0.33203 q-0.3125 -0.078125 -0.37109375 0.1171875 t-0.29297 0.078125 q0.2734375 0.46875 0.52734375 0.4296875 t0.48828 0.11719 q-0.15625 0.1171875 0 0.4296875 q0.546875 -0.1953125 0.80078125 -0.6640625 t0.68359 -0.74219 q0.0390625 -0.234375 0.13671875 -0.390625 t0.13672 -0.42969 z M49.80475 19.883 q-0.5859375 0 -0.91796875 0.29296875 t-0.87891 0.41016 q0.0390625 0.1171875 -0.078125 0.234375 t-0.35156 0.039063 q0 0.3515625 0.1171875 0.2734375 t0.23438 -0.17578 t0.23438 -0.17578 t0.27344 -0.039063 q0.234375 -0.3125 0.6640625 -0.4296875 t0.70313 -0.42969 z M47.460750000000004 21.211 q-0.546875 -0.078125 -0.9765625 0.234375 t-0.82031 0.58594 q0.4296875 -0.078125 0.8984375 -0.3515625 t0.89844 -0.46875 z M48.98475 21.641 q-0.5078125 0.15625 -0.64453125 0.21484375 t-0.33203 0.13672 q-0.1171875 -0.1171875 -0.33203125 -0.01953125 t-0.29297 0.21484 q-0.4296875 -0.0390625 -0.60546875 0.1953125 t-0.56641 0.23438 q-0.1953125 0.15625 -0.46875 0.21484375 t-0.50781 0.17578 q-0.1171875 0.1953125 -0.29296875 0.29296875 t-0.39063 0.17578 t-0.39063 0.17578 t-0.29297 0.25391 q0.5859375 0.078125 1.09375 -0.05859375 t1.0938 -0.21484 q0.2734375 -0.3515625 0.68359375 -0.546875 t0.85938 -0.37109 t0.82031 -0.41016 t0.56641 -0.66406 z M46.09375 17.266 q-0.1953125 0.1171875 -0.46875 0.09765625 t-0.42969 -0.17578 q0.0390625 -0.390625 0.2734375 -0.52734375 t0.50781 -0.29297 l-0.078125 -0.39063 t-0.11719 -0.39063 q-0.2734375 0.078125 -0.390625 -0.0390625 t-0.11719 -0.29297 t0.097656 -0.35156 t0.21484 -0.25391 q-0.0390625 -0.1953125 -0.13671875 -0.3125 t-0.13672 -0.35156 q-0.1171875 0.078125 -0.33203125 0.05859375 t-0.25391 -0.17578 q0.2734375 -0.1953125 0.15625 -0.48828125 l-0.19531 -0.48828 q-0.2734375 0.0390625 -0.44921875 0.15625 t-0.48828 0.039063 q-0.0390625 -0.546875 0.25390625 -0.56640625 t0.29297 -0.33203 q0 -0.2734375 -0.390625 -0.4296875 t-0.58594 -0.39063 q-1.25 -0.3125 -2.6171875 -0.41015625 t-2.6953 0.097656 q-0.1953125 0.1953125 -0.5078125 0.234375 t-0.625 0 q-0.2734375 0.3125 -0.60546875 0.56640625 t-0.097656 0.87891 l0.39063 -0.097656 t0.3125 0.13672 q-0.078125 0.1953125 -0.21484375 0.390625 t-0.44922 0.23438 q-0.1953125 0.2734375 -0.17578125 0.703125 t-0.058594 0.66406 q0.1953125 -0.078125 0.3515625 -0.09765625 t0.35156 -0.058594 q-0.078125 0.390625 -0.21484375 0.4296875 t-0.21484 0.11719 q-0.15625 0.15625 -0.21484375 0.29296875 t-0.058594 0.3125 t0.019531 0.37109 t-0.058594 0.35156 q0.390625 0.3125 0.44921875 0.234375 t0.13672 0.039063 q-0.0390625 0.1953125 -0.1171875 0.234375 t-0.15625 0.11719 q-0.1953125 0.1953125 -0.17578125 0.60546875 t0.097656 0.56641 q0.234375 -0.0390625 0.4296875 0.01953125 t0.27344 -0.097656 q0.234375 0.4296875 -0.078125 0.5859375 t-0.42969 0.50781 q-0.15625 0.46875 -0.234375 0.7421875 q0.4296875 0.1953125 0.29296875 0.41015625 t-0.37109 0.29297 q-0.0390625 0.390625 -0.01953125 0.5859375 t-0.097656 0.46875 q0.1171875 0.390625 0.1171875 0.6640625 t-0.078125 0.625 q0.2734375 0.46875 0.078125 0.64453125 t-0.11719 0.60547 q0.703125 0.1171875 1.40625 0 t1.2891 0.15625 q1.2109375 -0.1171875 1.9921875 -0.29296875 t1.6016 -0.29297 q0.9375 -0.3125 1.42578125 -0.76171875 t0.99609 -0.87891 q0 -0.2734375 0.13671875 -0.5078125 t0.29297 -0.44922 t0.3125 -0.44922 t0.19531 -0.54688 q-0.1953125 0.0390625 -0.21484375 -0.1171875 t-0.17578 -0.19531 q0.078125 -0.1953125 0.15625 -0.3515625 t0.19531 -0.35156 q0.2734375 -0.0390625 0.390625 -0.2734375 t0.15625 -0.52734 t0.019531 -0.625 t-0.019531 -0.60547 z M48.82775 27.734 q-0.1171875 -0.078125 -0.234375 0 l-0.23438 0.15625 q0.1171875 0.0390625 0.25390625 0.01953125 t0.21484 -0.17578 z M35.585750000000004 12.812000000000001 q0.0390625 -0.15625 -0.01953125 -0.21484375 t-0.019531 -0.25391 q-0.703125 0.2734375 -1.19140625 0.60546875 t-0.91797 0.52734 q-0.5859375 0.5078125 -1.1328125 0.8203125 q0.1953125 0.1953125 0.37109375 0.13671875 t0.37109 -0.19531 t0.41016 -0.27344 t0.48828 -0.097656 q0.078125 -0.1171875 0.17578125 -0.234375 t0.29297 -0.039063 q0.46875 -0.3125 0.78125 -0.390625 t0.39063 -0.39063 z M49.17975 28.398 q-0.1953125 -0.0390625 -0.2734375 0.05859375 t-0.23438 0.019531 q0 0.234375 0.234375 0.1953125 t0.27344 -0.27344 z M35.93775 11.133 q-0.2734375 -0.078125 -0.68359375 -0.15625 t-0.60547 0.11719 q-0.4296875 -0.078125 -0.83984375 -0.1171875 t-1.0742 0.039063 q-0.234375 0.3125 -0.60546875 0.52734375 t-0.76172 0.41016 q-0.0390625 -0.4296875 0.13671875 -0.37109375 t0.29297 -0.058594 q-0.2734375 -0.2734375 -0.0390625 -0.3125 t0.35156 -0.19531 q-0.6640625 -0.078125 -1.2109375 0 t-1.0938 0.078125 q0 0.3125 0.21484375 0.44921875 t0.17578 0.44922 q0.390625 0 0.6640625 -0.078125 t0.46875 0.039063 q-0.1953125 0.1953125 -0.41015625 0.25390625 t-0.48828 0.13672 q0.1953125 0.4296875 0.3515625 0.2734375 t0.3125 -0.15625 q-0.0390625 0.0390625 -0.29296875 0.2734375 t-0.25391 0.625 q0.4296875 0.1171875 0.4296875 -0.15625 q0.078125 -0.0390625 0.234375 -0.0390625 t0.19531 -0.11719 q0 0.234375 -0.13671875 0.3515625 t-0.21484 0.35156 q-0.390625 0.1171875 -0.546875 0.9375 q0.546875 0.15625 0.91796875 -0.09765625 t0.80078 -0.29297 q0.0390625 -0.234375 0.25390625 -0.41015625 t0.39063 -0.35156 t0.39063 -0.35156 t0.52734 -0.17578 q-0.0390625 -0.234375 0.09765625 -0.3125 t0.17578 -0.27344 q-0.15625 -0.0390625 -0.234375 0.0390625 t-0.23438 0 q0.15625 -0.1171875 0.44921875 -0.2734375 t0.60547 0.039063 q0.15625 -0.3125 0.2734375 -0.3515625 t0.27344 -0.039063 q0.078125 -0.3125 0.37109375 -0.37109375 t0.37109 -0.33203 z M45.820750000000004 25.586 q-0.390625 -0.2734375 -0.72265625 -0.13671875 t-0.25391 0.52734 q0.3515625 0.078125 0.56640625 -0.05859375 t0.41016 -0.33203 z M47.460750000000004 26.406 q-0.078125 -0.3125 -0.390625 -0.390625 t-0.58594 0 q-0.078125 0.3125 -0.390625 0.41015625 t-0.46875 0.37109 q0.15625 -0.2734375 0.3125 -0.5078125 t0.42969 -0.11719 q-0.0390625 -0.1171875 -0.01953125 -0.17578125 t0.019531 -0.25391 q-0.4296875 0.15625 -0.78125 0.3125 t-0.46875 0.58594 q0.390625 0.4296875 0.3515625 0.546875 q0.234375 0.4296875 0.13671875 0.4296875 t-0.17578 0.078125 q0.6640625 0 1.03515625 -0.21484375 t0.68359 -0.64453 q-0.1953125 0.1171875 -0.6640625 0.0390625 q-0.15625 0.1953125 -0.234375 0.234375 t-0.15625 0.039063 q0.1953125 -0.078125 0.21484375 -0.234375 t0.13672 -0.23438 q0.3515625 0.1171875 0.546875 -0.05859375 t0.46875 -0.21484 z M48.35975 27.227 q-0.3125 -0.1953125 -0.64453125 -0.0390625 t-0.68359 0.11719 q-0.4296875 0.3515625 -0.64453125 0.68359375 t-0.68359 0.33203 l0.625 0.19531 q0.078125 -0.1953125 0.37109375 -0.3125 t0.60547 -0.078125 q0.1953125 -0.3125 0.5859375 -0.390625 t0.46875 -0.50781 z M48.20275 28.867 q-0.15625 0.0390625 -0.29296875 0.05859375 t-0.21484 0.097656 q0.390625 0.1171875 0.5078125 -0.15625 z M48.241749999999996 28.047 q-0.3125 0.1171875 -0.5859375 0.21484375 t-0.39063 -0.097656 q0 0.1953125 -0.15625 0.25390625 t-0.23438 0.21484 q-0.46875 0.15625 -0.78125 0.33203125 t-0.58594 0.48828 q0.0390625 0.1953125 -0.078125 0.2734375 t0 0.23438 q0.1953125 -0.078125 0.29296875 -0.1953125 t0.25391 -0.039063 q0.390625 -0.2734375 0.64453125 -0.48828125 t0.56641 -0.29297 q0.0390625 -0.3125 0.29296875 -0.3515625 t0.44922 -0.19531 q0.1171875 -0.2734375 0.17578125 -0.3125 t0.13672 -0.039063 z M49.491749999999996 29.453 q-0.625 0.3125 -0.87890625 0.48828125 t-0.60547 0.37109 q0.078125 0.078125 -0.078125 0.1953125 t-0.35156 0.039063 q-0.15625 0.5078125 -0.7421875 0.625 q0.078125 0.15625 0.17578125 0.13671875 t0.21484 -0.078125 t0.23438 -0.15625 t0.19531 -0.13672 q0.3515625 0.0390625 0.52734375 -0.13671875 t0.41016 -0.29297 q0.234375 0.15625 0.390625 -0.01953125 t0.46875 -0.097656 q0.234375 -0.1171875 0.17578125 -0.41015625 t-0.13672 -0.52734 z M35.42975 13.437000000000001 q-0.1171875 0.0390625 -0.25390625 0.01953125 t-0.25391 0.058594 q-0.4296875 0.234375 -0.72265625 0.37109375 t-0.60547 0.13672 q-0.1953125 0.234375 -0.3515625 0.2734375 t-0.42969 0.11719 q-0.1953125 0.2734375 -0.5078125 0.4296875 t-0.70313 0.27344 q-0.4296875 0.4296875 -0.703125 0.60546875 t-0.39063 0.52734 q0 0.1171875 0.0390625 0.29296875 t0.11719 0.33203 q0 -0.2734375 0.234375 -0.29296875 t0.42969 -0.097656 q0.4296875 -0.390625 0.64453125 -0.5078125 t0.29297 -0.3125 q0.234375 -0.15625 0.46875 -0.1171875 q0.1953125 -0.390625 0.64453125 -0.546875 t0.64453 -0.50781 q0.4296875 -0.1953125 0.76171875 -0.46875 t0.64453 -0.58594 z M32.38285 14.492 q-0.15625 -0.078125 -0.25390625 0.01953125 t-0.17578 0.21484 q0.1953125 0.078125 0.2734375 -0.01953125 t0.15625 -0.21484 z M49.64875 32.9297 q0.0390625 -0.46875 0.05859375 -0.8203125 t-0.058594 -0.78125 q-0.234375 0.2734375 -0.37109375 0.25390625 t-0.21484 0.019531 q-0.078125 0.3515625 -0.41015625 0.44921875 t-0.64453 0.21484 q-0.078125 0.1171875 -0.078125 0.4296875 q0.4296875 -0.15625 0.60546875 -0.21484375 t0.25391 -0.21484 q0.390625 0.078125 0.48828125 0.1953125 t0.097656 0.3125 q-0.3515625 0.3515625 -0.6640625 0.4296875 q0.3125 0.0390625 0.52734375 -0.05859375 t0.41016 -0.21484 z M48.16375 29.492 q-0.1953125 0.0390625 -0.33203125 0.1171875 t-0.33203 0.039063 q-0.390625 0.5078125 -0.9765625 0.72265625 t-1.0547 0.72266 q0.3125 0.3515625 0.52734375 0.17578125 t0.42969 -0.39063 t0.44922 -0.37109 t0.58594 -0.23438 q0.078125 -0.3125 0.3515625 -0.390625 t0.35156 -0.39063 z M35.585750000000004 14.805 q0 -0.1953125 -0.0390625 -0.33203125 t-0.078125 -0.25391 q-0.2734375 0.1171875 -0.56640625 0.234375 t-0.52734 0.3125 q-0.2734375 0.15625 -0.44921875 0.37109375 t-0.37109 0.29297 q-0.3125 0.2734375 -0.390625 0.25390625 t-0.19531 0.019531 q-0.3125 0.1953125 -0.4296875 0.390625 t-0.3125 -0.039063 q0.078125 0.46875 0.234375 0.3515625 t0.23438 -0.27344 q0.3125 -0.0390625 0.41015625 -0.078125 t0.097656 0.039063 q0 0.2734375 -0.1953125 0.2734375 l-0.27344 0 q-0.3125 0.1953125 -0.5859375 0.390625 t-0.70313 0.15625 q-0.078125 0.3515625 -0.44921875 0.4296875 t-0.41016 0.46875 q0.1171875 0.1953125 0.0390625 0.3515625 t-0.19531 0.27344 l0.17578 0.17578 t0.019531 0.21484 q0.390625 -0.1171875 0.33203125 -0.17578125 t0.019531 -0.13672 t0.23438 -0.11719 t0.19531 -0.078125 q0.078125 0.3125 0.1953125 0.33203125 t0.23438 -0.019531 q0.234375 -0.234375 0.33203125 -0.21484375 t0.097656 0.17578 q-0.5078125 0.0390625 -0.859375 0.390625 t-0.82031 0.50781 q-0.078125 0.3125 -0.01953125 0.48828125 t-0.13672 0.37109 q0.1953125 0.390625 0.2734375 0.33203125 t0.19531 0.058594 q0.1171875 -0.46875 0.625 -0.68359375 t0.66406 -0.33203 q0.6640625 -0.390625 0.8984375 -0.64453125 t0.54688 -0.48828 q0.3515625 -0.3125 0.703125 -0.37109375 t0.58594 -0.21484 q0.4296875 -0.3515625 0.52734375 -0.546875 t0.019531 -0.39063 q-0.1953125 0.1171875 -0.4296875 0.15625 t-0.35156 0.078125 q0.078125 -0.1171875 0.1953125 -0.1953125 t0.39063 -0.039063 q0.15625 -0.2734375 0.2734375 -0.60546875 t-0.078125 -0.68359 q-0.1953125 0.078125 -0.33203125 0.15625 t-0.37109 0.078125 q-0.0390625 0.234375 -0.234375 0.2734375 t-0.19531 -0.15625 q0.4296875 -0.4296875 0.72265625 -0.46875 t0.37109 -0.35156 q-0.703125 0.1171875 -1.2890625 0.390625 q0.1953125 -0.15625 0.3125 -0.2734375 t0.3125 -0.19531 q0.5078125 -0.1953125 0.8203125 -0.4296875 z M35.585750000000004 18.359 q0.078125 -0.4296875 -0.46875 -0.3125 q-0.3515625 0.390625 -0.52734375 0.4296875 t-0.33203 -0.039063 q-0.0390625 0.3515625 -0.2734375 0.3125 t-0.27344 0.11719 q-0.4296875 0.234375 -0.3125 0.3515625 t-0.078125 0.19531 q-0.2734375 0.2734375 -0.1953125 0.4296875 q0.078125 -0.2734375 0.4296875 -0.15625 q-0.078125 -0.234375 0.1171875 -0.1953125 t0.39063 -0.039063 q0.0390625 -0.234375 0.29296875 -0.3515625 t0.50781 -0.21484 t0.48828 -0.19531 t0.23438 -0.33203 z M49.80475 34.2578 q-0.3125 -0.3515625 -0.5078125 -0.2734375 t-0.27344 -0.039063 q-0.1953125 0.3125 -0.1171875 0.46875 q0.3125 -0.078125 0.48828125 -0.078125 t0.41016 -0.078125 z M47.81275 32.7344 l-0.35156 0.3125 q0.15625 -0.15625 0.2734375 -0.17578125 t0.078125 -0.13672 z M35.741749999999996 20.078 q-0.078125 -0.2734375 -0.21484375 -0.29296875 t-0.3125 0.097656 t-0.39063 0.23438 t-0.41016 0.078125 q0.078125 0.2734375 -0.09765625 0.2734375 t-0.17578 0.19531 q0.1953125 0.078125 0.4296875 -0.01953125 t0.39063 -0.21484 q0.1953125 -0.1171875 0.41015625 -0.17578125 t0.37109 -0.17578 z M49.29675 30.976599999999998 q-0.3125 0.0390625 -0.33203125 -0.01953125 t-0.13672 -0.097656 q-0.46875 0.234375 -0.68359375 0.390625 t-0.56641 0.078125 q-0.703125 0.5078125 -1.015625 0.8203125 q-0.3125 -0.0390625 -0.5078125 0.25390625 t-0.46875 0.41016 q-0.078125 0.390625 -0.01953125 0.7421875 t0.13672 0.68359 t0.17578 0.64453 t0.058594 0.625 q0 0.1171875 -0.0390625 0.25390625 t0.11719 0.25391 q0.1953125 -0.1171875 0.33203125 -0.37109375 t0.41016 -0.17578 q0.0390625 -0.546875 0.1171875 -0.68359375 t0 -0.33203 q0.1953125 -0.3125 0.41015625 -0.52734375 t0.41016 -0.44922 q-0.3515625 0.078125 -0.546875 0.33203125 t-0.50781 0.44922 q-0.2734375 0 -0.4296875 -0.1953125 t-0.23438 -0.46875 q0.15625 -0.2734375 0.4296875 -0.4296875 t0.625 -0.27344 q-0.078125 -0.1953125 0.1171875 -0.3515625 t0.35156 -0.11719 q0.3125 -0.1953125 0.2734375 -0.2734375 t0 -0.19531 q0.2734375 -0.0390625 0.390625 -0.25390625 t0.46875 -0.097656 q0.15625 -0.1953125 0.3125 -0.3515625 t0.35156 -0.27344 z M50.46875 37.1875 q-0.390625 -0.078125 -0.5078125 -0.0390625 t-0.11719 -0.039063 q-0.078125 0.15625 -0.1953125 0.21484375 t-0.19531 0.25391 q0.1953125 -0.0390625 0.4296875 0.01953125 t0.35156 -0.13672 z M33.90625 21.094 q-0.1953125 -0.1953125 -0.3125 -0.234375 t-0.11719 0.078125 q0.15625 0.1953125 0.4296875 0.15625 z M35.54675 21.25 q-0.3515625 0.0390625 -0.56640625 0.21484375 t-0.41016 0.37109 q-0.15625 0.078125 -0.29296875 0.1171875 t-0.21484 -0.039063 q-0.0390625 0.078125 -0.078125 0.1953125 t-0.11719 0.19531 q-0.5078125 0.0390625 -0.5078125 0.4296875 q0.1953125 -0.0390625 0.2734375 -0.15625 t0.3125 -0.039063 q0.078125 -0.2734375 0.33203125 -0.29296875 t0.37109 0.058594 q0.3515625 -0.1953125 0.72265625 -0.37109375 t0.17578 -0.68359 z M49.960750000000004 36.0937 q0.078125 -0.1171875 0.078125 -0.3515625 t-0.078125 -0.42969 q-0.2734375 0.0390625 -0.37109375 0.17578125 t-0.37109 0.17578 q-0.3125 -0.2734375 -0.13671875 -0.37109375 t0.29297 -0.097656 q0 -0.1953125 0.1171875 -0.25390625 l0.27344 -0.13672 q-0.3515625 -0.078125 -0.44921875 -0.078125 l-0.17578 0 q-0.390625 0.1953125 -0.46875 0.33203125 t-0.42969 0.058594 q0.0390625 0.078125 -0.0390625 0.13671875 t-0.19531 0.11719 t-0.19531 0.11719 t-0.039063 0.13672 q-0.1953125 -0.0390625 -0.29296875 0.13671875 t-0.25391 0.097656 q0 0.1953125 -0.1953125 0.25390625 t-0.35156 -0.019531 q-0.3125 0.3515625 -0.390625 0.390625 q-0.15625 0.234375 0.01953125 0.3515625 t0.25391 0.39063 q0.15625 0 0.25390625 -0.0390625 t0.25391 0 q0.1953125 -0.3125 0.390625 -0.52734375 t0.42969 -0.21484 q0.0390625 -0.234375 0.390625 -0.3125 q0.4296875 -0.15625 0.56640625 -0.25390625 t0.17578 0.21484 q-0.46875 0 -0.5078125 0.4296875 q-0.3125 0.15625 -0.3515625 0.3125 q0.390625 -0.1953125 0.5078125 -0.1953125 t0.3125 -0.078125 q-0.1953125 0.3125 -0.48828125 0.546875 t-0.60547 0.15625 q-0.0390625 0.3515625 -0.1953125 0.390625 l-0.3125 0.078125 q0.078125 0.15625 0.01953125 0.2734375 t0.019531 0.27344 q0.625 -0.2734375 1.0546875 -0.6640625 t1.0156 -0.70313 q0.15625 -0.4296875 0.01953125 -0.390625 t-0.29297 -0.039063 q0.2734375 -0.2734375 0.44921875 -0.29296875 t0.29297 -0.097656 z M35.42975 19.062 q-0.703125 0 -1.11328125 0.37109375 t-1.1133 0.48828 q-0.1953125 0.3125 -0.60546875 0.390625 t-0.60547 0.39063 q-0.4296875 0.234375 -0.78125 0.48828125 t-0.78125 0.33203 q-0.078125 0.546875 -0.1171875 0.8984375 t0.078125 0.625 l-0.19531 0.48828 t0.078125 0.48828 q0.234375 0.0390625 0.29296875 -0.09765625 t0.25391 0.019531 q0.46875 -0.2734375 0.56640625 -0.44921875 t0.41016 -0.097656 q0.15625 -0.2734375 0.37109375 -0.5078125 t0.52734 -0.19531 q0.3515625 -0.4296875 0.8203125 -0.6640625 t0.85938 -0.54688 q0.1171875 -0.15625 0.21484375 -0.234375 t0.23438 -0.11719 t0.25391 -0.097656 t0.11719 -0.25391 q-0.625 0.2734375 -1.23046875 0.5078125 t-1.0742 0.66406 q-0.3125 0.1171875 -0.546875 0.21484375 t-0.42969 0.097656 q-0.3125 0.3125 -0.46875 0.5078125 t-0.50781 0.11719 q-0.1171875 -0.3125 0.01953125 -0.56640625 t0.44922 -0.25391 q0.703125 -0.5078125 1.26953125 -0.99609375 t1.2695 -0.68359 q0.3515625 -0.4296875 0.7421875 -0.703125 t0.74219 -0.625 z M50.85975 37.6953 q-0.15625 -0.1953125 -0.29296875 -0.1171875 t-0.25391 0.21484 t-0.25391 0.23438 t-0.29297 -0.019531 q-0.078125 -0.2734375 -0.17578125 -0.078125 t-0.17578 0.39063 q-0.390625 0.234375 -0.64453125 0.3515625 t-0.41016 0.39063 q0.234375 0.2734375 0.7421875 0.3515625 t0.89844 -0.078125 q0.078125 -0.234375 -0.0390625 -0.2734375 t-0.078125 -0.19531 q0.0390625 -0.1171875 0.1953125 -0.09765625 t0.23438 -0.058594 q-0.078125 -0.2734375 0.01953125 -0.37109375 t0.29297 -0.058594 q0 -0.2734375 0.078125 -0.33203125 t0.15625 -0.25391 z M35.585750000000004 23.008 q0.0390625 -0.3125 -0.17578125 -0.25390625 t-0.41016 0.058594 q-0.1953125 0.15625 -0.3515625 0.29296875 t-0.3125 0.29297 t-0.33203 0.27344 t-0.44922 0.11719 l-0.11719 0.23438 t-0.15625 0.27344 q0.15625 -0.0390625 0.37109375 -0.17578125 t0.33203 -0.21484 q0.3515625 -0.1953125 0.95703125 -0.390625 t0.64453 -0.50781 z M35.42975 24.531 q-0.1953125 -0.234375 -0.2734375 -0.15625 t-0.15625 0.17578 t-0.15625 0.17578 t-0.23438 0 q-0.0390625 0.1953125 -0.234375 0.234375 t-0.19531 0.27344 q0.15625 0 0.29296875 -0.05859375 t0.29297 0.019531 q0.3515625 -0.2734375 0.44921875 -0.41015625 t0.21484 -0.25391 z M34.76575 22.656 q-0.234375 -0.15625 -0.4296875 -0.234375 t-0.27344 0.11719 q-0.1171875 0.15625 -0.2734375 0.2734375 t-0.35156 0.039063 q-0.859375 0.625 -1.46484375 1.015625 t-1.2695 0.74219 q0 0.1171875 -0.1171875 0.21484375 t-0.25391 0.21484 t-0.19531 0.23438 t0.058594 0.3125 q0.15625 0.1953125 0.1953125 0.09765625 t0.23438 -0.019531 q0.3515625 -0.5078125 0.8984375 -0.859375 q0.546875 -0.3125 0.83984375 -0.5859375 t0.68359 -0.27344 q0.1953125 -0.4296875 0.64453125 -0.68359375 t0.83984 -0.41016 z M34.06255 26.055 q0.0390625 -0.15625 -0.01953125 -0.25390625 t-0.13672 -0.17578 q-0.234375 0.4296875 -0.078125 0.390625 t0.23438 0.039063 z M35.27375 25.508 q-0.078125 0.234375 -0.46875 0.1953125 q-0.3515625 0 -0.3515625 0.13671875 l0 0.25391 q-0.3125 -0.1171875 -0.29296875 0.09765625 t-0.17578 0.058594 q-0.078125 0.3125 -0.33203125 0.5859375 t-0.52734 0.19531 q-0.0390625 0.1171875 -0.09765625 0.234375 t-0.29297 0.039063 q-0.0390625 0.1171875 -0.0390625 0.2734375 t0.078125 0.19531 q0.3125 -0.078125 0.56640625 -0.25390625 t0.48828 -0.25391 q0.2734375 -0.234375 0.46875 -0.3515625 t0.46875 -0.19531 q0.46875 -0.1953125 0.5859375 -0.546875 t-0.078125 -0.66406 z M34.17965 24.297 q-0.3515625 0.1171875 -0.41015625 0.17578125 t-0.17578 0.019531 q-0.703125 0.5078125 -1.25 0.76171875 t-0.9375 0.72266 q-0.1953125 0.1171875 -0.5078125 0.2734375 t-0.54688 0.35156 t-0.33203 0.44922 t0.097656 0.56641 q-0.0390625 -0.234375 0.17578125 -0.29296875 t0.29297 -0.097656 q0.46875 -0.234375 0.56640625 -0.37109375 t0.29297 -0.058594 q0.1953125 -0.1953125 0.13671875 -0.2734375 t0.097656 -0.11719 q0.1953125 -0.1171875 0.4296875 -0.3125 t0.54688 -0.35156 q0.15625 -0.3125 0.46875 -0.46875 t0.50781 -0.46875 q0.2734375 0 0.29296875 -0.13671875 t0.21484 -0.13672 z M35.39075 29.609 q-0.3125 0.078125 -0.390625 0.13671875 t-0.23438 0.11719 t-0.29297 0.097656 t-0.17578 0.15625 q0.234375 0.1953125 0.3125 0.05859375 t0.35156 -0.13672 q0.2734375 -0.15625 0.4296875 -0.4296875 z M32.57815 27.891 q-0.234375 0.0390625 -0.3125 0.0390625 t-0.15625 0.078125 q0.078125 0.078125 0.234375 0.01953125 t0.23438 -0.13672 z M33.75005 26.094 q-0.2734375 0 -0.4296875 -0.078125 q-0.703125 0.5859375 -1.38671875 0.99609375 t-1.3477 0.83984 q-0.2734375 0.3515625 -0.33203125 0.3515625 t-0.13672 0.078125 q-0.0390625 0.1953125 -0.17578125 0.48828125 t0.058594 0.37109 q0.15625 -0.0390625 0.1953125 -0.13671875 t0.11719 -0.17578 q0.625 -0.234375 0.99609375 -0.703125 t1.0352 -0.70313 q0.078125 -0.2734375 0.3125 -0.4296875 t0.42969 -0.19531 q0 -0.1953125 0.29296875 -0.33203125 t0.37109 -0.37109 z M32.10935 28.125 q-0.1171875 -0.078125 -0.234375 -0.01953125 t-0.3125 -0.019531 q-0.0390625 0.15625 0.0390625 0.21484375 t0.19531 0.058594 t0.21484 -0.058594 t0.097656 -0.17578 z M35.07775 27.109 q-0.390625 -0.0390625 -0.72265625 0.15625 t-0.64453 0.27344 q-0.15625 0.234375 -0.44921875 0.3125 t-0.37109 0.39063 q-0.78125 0.5078125 -1.71875 0.8203125 q0 0.1171875 -0.078125 0.25390625 t-0.27344 0.17578 q-0.2734375 0.15625 -0.4296875 0.390625 t-0.46875 0.15625 q0 0.3125 0.05859375 0.48828125 t-0.058594 0.41016 q0.234375 0 0.4296875 -0.1171875 t0.37109 -0.27344 t0.35156 -0.27344 t0.41016 -0.11719 q0 -0.15625 0.09765625 -0.25390625 t0.21484 -0.17578 l0.23438 -0.15625 t0.15625 -0.23438 q0.15625 -0.078125 0.2734375 -0.15625 t0.27344 -0.15625 q0.3515625 -0.3515625 0.72265625 -0.60546875 t0.68359 -0.56641 q0.4296875 -0.1953125 0.5078125 -0.44921875 t0.42969 -0.29297 z M35.351749999999996 31.0937 q-0.3515625 0.1171875 -0.9765625 0.234375 q-0.1171875 0.1953125 -0.2734375 0.390625 t-0.39063 0.15625 q0.234375 0.4296875 0.3125 0.3125 t0.27344 -0.15625 q0.46875 -0.3125 0.60546875 -0.5859375 t0.44922 -0.35156 z M35.46875 28.086 l0 -0.52734 t-0.3125 -0.29297 q0.1171875 0.3125 -0.078125 0.5078125 q-0.234375 -0.0390625 -0.3515625 0.05859375 t-0.21484 0.25391 t-0.21484 0.27344 t-0.3125 0.039063 q0.0390625 0.078125 0 0.234375 t0.039063 0.19531 q0.1953125 -0.0390625 0.3515625 -0.1953125 t0.3125 -0.11719 q0 0.3125 -0.3125 0.390625 q-0.0390625 -0.1171875 -0.29296875 0.13671875 t-0.48828 0.44922 q-0.3125 -0.0390625 -0.56640625 0.25390625 t-0.52734 0.29297 q-0.5078125 0.390625 -0.76171875 0.64453125 t-0.68359 0.37109 q-0.234375 0.234375 -0.52734375 0.5078125 t-0.64453 0.35156 q0.1171875 0.078125 0.13671875 0.21484375 t0.019531 0.27344 t0.039063 0.27344 t0.19531 0.17578 q0.390625 -0.234375 0.5859375 -0.60546875 t0.70313 -0.41016 q0.1953125 -0.2734375 0.44921875 -0.546875 t0.60547 -0.23438 q0.078125 -0.2734375 0.25390625 -0.3515625 t0.25391 -0.27344 q0.3125 -0.1171875 0.44921875 -0.29296875 t0.37109 -0.17578 q0.3125 -0.2734375 0.46875 -0.390625 t0.54688 -0.039063 q-0.078125 -0.390625 0.13671875 -0.5078125 t0.29297 -0.50781 q-0.15625 -0.078125 -0.29296875 -0.01953125 t-0.25391 -0.019531 q0.078125 -0.15625 0.29296875 -0.1953125 t0.33203 -0.19531 z M35.42975 33.9844 q-0.1953125 0.0390625 -0.2734375 0.15625 t-0.3125 -0.039063 q-0.0390625 0.3125 -0.2734375 0.4296875 t-0.3125 0.35156 q0.1171875 -0.1171875 0.33203125 -0.17578125 t0.41016 -0.11719 t0.33203 -0.19531 t0.097656 -0.41016 z M33.86715 31.289099999999998 q-0.078125 -0.3125 -0.25390625 -0.13671875 t-0.17578 0.29297 q-0.703125 0.3515625 -1.1328125 0.625 t-0.89844 0.58594 q0 0.1171875 -0.13671875 0.234375 t-0.33203 0.19531 t-0.39063 0.17578 t-0.3125 0.21484 q0.078125 0.1953125 0.0390625 0.390625 t0 0.50781 q0.1171875 0 0.17578125 -0.05859375 t0.097656 -0.13672 t0.097656 -0.13672 t0.17578 -0.019531 q0.0390625 -0.1953125 0.17578125 -0.2734375 t0.21484 -0.19531 q0.1171875 0.0390625 0.2734375 0.1171875 t0.27344 -0.078125 q-0.1171875 -0.1171875 -0.234375 -0.1171875 t-0.19531 -0.11719 q0.703125 -0.4296875 1.2890625 -0.9765625 t1.25 -1.0938 z M35.39075 35.6641 q-0.234375 0.234375 -0.41015625 0.3125 t-0.37109 0.039063 q-0.390625 0.390625 -0.56640625 0.41015625 t-0.058594 0.33203 q0.3515625 -0.078125 0.5859375 -0.2734375 t0.66406 -0.19531 q-0.0390625 -0.15625 0.1171875 -0.2734375 t0.039063 -0.35156 z M36.75775 38.8672 q-0.1953125 -0.078125 -0.37109375 -0.15625 t-0.13672 -0.35156 q-0.3125 -0.15625 -0.390625 -0.46875 t-0.39063 -0.58594 q0 0.3125 -0.21484375 0.1953125 t-0.33203 0.078125 q-0.0390625 0.15625 0.05859375 0.21484375 t0.13672 0.17578 q-0.078125 0.1171875 -0.1953125 0.1953125 t-0.19531 0.23438 q0.1171875 0.0390625 0.33203125 -0.078125 t0.41016 -0.11719 q0.078125 0.1171875 0.1953125 0.13671875 t0.15625 0.17578 q-0.078125 -0.078125 -0.234375 -0.078125 t-0.19531 0.11719 q0.078125 0.1171875 -0.078125 0.15625 t-0.3125 0.19531 q0.3515625 0.1953125 0.859375 0.1171875 t0.89844 -0.15625 z M35.46875 32.6562 q-0.1171875 -0.15625 -0.1171875 -0.33203125 t-0.15625 -0.25391 q-0.3125 0.1953125 -0.625 0.41015625 t-0.54688 0.48828 q-0.1171875 0.2734375 -0.25390625 0.2734375 t-0.29297 0.039063 q0 0.234375 -0.13671875 0.37109375 t-0.33203 0.058594 q0.15625 0.234375 0.46875 0.0390625 t0.50781 -0.27344 q0.078125 0.3515625 -0.17578125 0.4296875 t-0.37109 0.35156 q-0.4296875 0.078125 -0.56640625 0.25390625 t-0.48828 0.13672 l-0.50781 0.27344 q-0.3515625 0.3125 -0.4296875 0.4296875 t-0.3125 0.078125 q-0.1953125 0.3515625 -0.52734375 0.5859375 t-0.68359 0.46875 q0.078125 0.390625 0 0.78125 t-0.42969 0.46875 q0 0.3515625 -0.17578125 0.37109375 t0.019531 0.097656 q-0.390625 0.1953125 -0.48828125 0.234375 t-0.13672 0.11719 q0.234375 0.2734375 0.546875 0.2734375 t0.50781 -0.15625 q1.3671875 0.1953125 2.34375 0.3125 t2.0703 -0.039063 q-0.078125 -0.15625 -0.0390625 -0.2734375 t0.097656 -0.21484 t0.13672 -0.21484 t0.039063 -0.23438 q0.234375 -0.3125 0.41015625 -0.6640625 t0.41016 -0.625 q-0.1953125 -0.078125 -0.52734375 -0.05859375 t-0.44922 0.21484 q0.15625 0 0.2734375 -0.05859375 t0.19531 0.058594 q-0.15625 0.1171875 -0.390625 0.1953125 t-0.42969 0.078125 q-0.1171875 0.1953125 -0.29296875 0.3125 t-0.37109 0.21484 t-0.37109 0.21484 t-0.25391 0.3125 q-0.3515625 0.2734375 -0.5859375 0.33203125 t-0.50781 0.13672 q0.078125 -0.6640625 0.4296875 -0.87890625 t0.66406 -0.52734 q0.2734375 -0.078125 0.3515625 -0.3125 t0.3125 -0.15625 q0.15625 -0.3125 0.390625 -0.48828125 t0.46875 -0.37109 q0.234375 -0.0390625 0.29296875 -0.13671875 t0.13672 -0.21484 q0.1953125 -0.0390625 0.1953125 -0.13671875 t0.23438 -0.019531 q0.1953125 -0.1953125 0.2734375 -0.546875 q-0.15625 -0.0390625 -0.234375 0.01953125 t-0.17578 0.13672 t-0.17578 0.15625 t-0.23438 0 q-0.234375 0.4296875 -0.5859375 0.2734375 q-0.078125 0.3125 -0.29296875 0.3515625 t-0.52734 0.11719 q-0.0390625 0.3125 -0.37109375 0.3515625 t-0.44922 0.11719 q-0.390625 0.5859375 -0.95703125 0.859375 t-0.99609 0.74219 q-0.078125 -0.078125 -0.17578125 -0.13671875 t-0.13672 -0.17578 q0.234375 -0.4296875 0.625 -0.60546875 t0.82031 -0.44922 q0.3515625 -0.1953125 0.546875 -0.44921875 t0.46875 -0.29297 q0.078125 -0.1953125 0.1953125 -0.33203125 t0.35156 -0.13672 q0.6640625 -0.625 1.03515625 -1.03515625 t0.80078 -0.76172 q-0.1171875 -0.1171875 -0.1953125 -0.01953125 t-0.3125 0.019531 q0 -0.3515625 0.1953125 -0.390625 t0.3125 0.039063 q0.0390625 -0.3125 0.33203125 -0.33203125 t0.33203 -0.29297 z M48.04675 12.969000000000001 q-0.3125 0 -0.44921875 0.078125 t-0.44922 0.11719 q0.46875 -0.2734375 0.546875 -0.29296875 t0.23438 -0.13672 z M50.585750000000004 15.390999999999998 q-0.4296875 0.1953125 -0.5859375 0.2734375 t-0.3125 -0.039063 q0.078125 -0.078125 0.1953125 -0.09765625 t0.11719 -0.21484 q0.1953125 0.078125 0.3125 0.0390625 t0.27344 0.039063 z M48.67175 14.414000000000001 q-0.1953125 0.078125 -0.3125 0.1171875 t-0.3125 0.11719 q-0.0390625 -0.234375 0.15625 -0.25390625 t0.27344 -0.13672 z M47.070750000000004 13.164000000000001 q0 0.15625 -0.15625 0.1953125 t-0.23438 0 q0.234375 -0.2734375 0.2734375 -0.234375 t0.11719 0.039063 z M48.320750000000004 18.828 q-0.3125 0.1953125 -0.46875 0.1953125 t-0.23438 0.078125 q0.3515625 -0.1953125 0.41015625 -0.25390625 t-0.019531 -0.097656 z M34.335750000000004 11.797 q-0.390625 0.078125 -0.64453125 0.33203125 t-0.64453 0.21484 q-0.1953125 0.2734375 -0.48828125 0.37109375 t-0.60547 0.17578 q-0.078125 0.15625 -0.13671875 0.1953125 t-0.25391 0 q0.1953125 -0.1953125 0.4296875 -0.3125 t0.35156 -0.39063 q0.3125 0 0.5078125 -0.1953125 t0.35156 -0.27344 q-0.1953125 -0.15625 -0.44921875 0.01953125 t-0.64453 0.097656 q0.3125 -0.3125 0.87890625 -0.390625 t0.91797 -0.35156 q0.546875 -0.078125 0.4296875 0.5078125 z M34.02345 15.859000000000002 q-0.078125 0.1953125 -0.234375 0.17578125 t-0.42969 -0.019531 q0.3515625 -0.234375 0.2734375 -0.2734375 t-0.039063 -0.11719 q0.15625 0.078125 0.1953125 0.1953125 t0.23438 0.039063 z M34.25775 16.523 q-0.078125 0.078125 -0.17578125 0.13671875 t-0.13672 0.17578 q-0.390625 0.3125 -0.5859375 0.33203125 t-0.27344 0.21484 q-0.15625 -0.078125 -0.234375 0.01953125 t-0.19531 -0.019531 q0.2734375 -0.1171875 0.48828125 -0.37109375 t0.60547 -0.17578 q0.3515625 -0.15625 0.4296875 -0.46875 z M32.18755 18.125 q-0.2734375 -0.078125 -0.3125 0 t-0.19531 0 q-0.0390625 -0.1953125 0.17578125 -0.17578125 t0.17578 -0.25391 q0.1171875 0.078125 0.09765625 0.1953125 t0.058594 0.23438 z M61.6016125 36.9531 q0 0.625 -0.01953125 0.859375 t-0.11719 0.44922 l-0.19531 0.42969 t-0.13672 0.44922 q-0.1171875 0.078125 -0.33203125 0.234375 t-0.42969 0.33203 t-0.41016 0.27344 t-0.23438 -0.019531 q-0.2734375 0.0390625 -0.44921875 0.17578125 t-0.41016 0.13672 q-0.390625 0.0390625 -0.7421875 -0.15625 t-0.78125 -0.15625 q-0.390625 -0.1953125 -0.72265625 -0.44921875 t-0.68359 -0.52734 q0.078125 -0.15625 0.01953125 -0.25390625 t0.019531 -0.25391 q-0.3515625 -0.390625 -0.1953125 -0.60546875 t0.15625 -0.48828 q-0.0390625 -0.8203125 0.234375 -1.30859375 t0.58594 -0.87891 t0.87891 -0.60547 t1.0742 -0.29297 q0.078125 0.3125 0.3515625 0.3125 t0.50781 -0.11719 q0.1953125 0.1953125 0.46875 0.29296875 t0.52734 0.23438 t0.42969 0.35156 t0.21484 0.56641 q0.1953125 0.1953125 0.234375 0.48828125 t0.15625 0.52734 z M59.5703125 35.7812 q0 -0.234375 -0.17578125 -0.15625 t-0.25391 -0.078125 q0 0.1171875 0.17578125 0.13671875 t0.25391 0.097656 z M58.6719125 36.0937 q-0.1953125 -0.078125 -0.33203125 -0.1171875 t-0.33203 0.039063 q0.1953125 0.078125 0.390625 0.13671875 t0.27344 -0.058594 z M58.6328125 35.4297 q-0.390625 -0.2734375 -0.546875 -0.25390625 t-0.19531 0.13672 q-0.5078125 0.3125 -0.859375 0.625 t-0.3125 0.74219 q0.078125 -0.078125 0.13671875 -0.1953125 t0.29297 -0.078125 q0.078125 -0.234375 0.25390625 -0.2734375 t0.37109 -0.11719 q0.2734375 -0.3515625 0.4296875 -0.44921875 t0.42969 -0.13672 z M58.8672125 36.9531 q-0.15625 -0.2734375 -0.60546875 -0.33203125 t-0.60547 0.13672 q0.15625 0.1171875 0.3515625 0.05859375 t0.27344 0.13672 q0.2734375 0.0390625 0.3125 0 t0.27344 0 z M61.0547125 36.7578 q-0.6640625 -0.15625 -0.6640625 -0.6640625 q-0.15625 -0.1953125 -0.3515625 -0.1171875 l-0.39063 0.15625 q-0.390625 0.0390625 -0.3515625 0.09765625 t-0.078125 0.097656 q-0.3125 -0.0390625 -0.546875 0 q0.0390625 0.1953125 0.29296875 0.17578125 t0.21484 0.25391 q0.1171875 0.0390625 0.234375 0.05859375 t0.19531 0.097656 q-0.234375 0.1171875 -0.3125 0.1953125 t-0.27344 0.078125 q-0.3125 0.1171875 -0.234375 0.1953125 t0 0.19531 q-0.546875 0.234375 -0.703125 0.3515625 t-0.3125 0.25391 t-0.35156 0.23438 t-0.50781 0.097656 q0.1171875 0.1171875 0.1171875 0.1953125 t0.078125 0.27344 q0.4296875 0.078125 0.8203125 0.29296875 t0.82031 0.21484 q0.859375 0 1.3671875 -0.546875 t0.82031 -1.2109 q-0.0390625 -0.3515625 0 -0.56640625 t0.11719 -0.41016 z M57.5781125 36.875 q-0.1171875 -0.078125 -0.29296875 -0.1171875 t-0.33203 0 q0.078125 0.1171875 0.234375 0.17578125 t0.27344 0.019531 z M58.1641125 37.3047 q-0.390625 -0.078125 -0.56640625 -0.0390625 t-0.41016 0.039063 q-0.078125 0.1953125 -0.21484375 0.2734375 t-0.21484 0.27344 q0 0.1953125 0.234375 0.17578125 t0.15625 0.058594 q0.234375 -0.234375 0.3125 -0.25390625 t0.11719 -0.097656 q0.3515625 -0.0390625 0.4296875 -0.1953125 t0.15625 -0.23438 z M60.5078125 36.7187 q0 0.2734375 -0.2734375 0.29296875 t-0.39063 -0.019531 q0.078125 -0.3125 0.1953125 -0.33203125 t0.11719 -0.13672 l0 0.42969 z M60.0391125 37.4609 q-0.1171875 -0.0390625 -0.2734375 0 t-0.19531 -0.11719 q0.078125 0.078125 0.2734375 0.01953125 t0.19531 0.097656 z M60.5469125 37.5391 q-0.2734375 0.4296875 -0.52734375 0.52734375 t-0.52734 0.17578 q-0.078125 -0.15625 -0.1953125 -0.21484375 t-0.19531 -0.17578 q-0.234375 0.390625 0.1171875 0.546875 q-0.3125 -0.078125 -0.33203125 -0.01953125 t-0.097656 0.019531 q0.078125 0.15625 -0.0390625 0.2734375 t-0.11719 0.3125 q-0.4296875 0.0390625 -0.6640625 0.078125 t-0.19531 -0.3125 q0.3515625 0.078125 0.41015625 -0.17578125 t0.25391 -0.37109 q0.1953125 -0.234375 0.37109375 -0.37109375 t0.48828 -0.21484 q0 0.1953125 0.13671875 0.21484375 t0.13672 0.17578 q0.1171875 -0.078125 0.234375 -0.0390625 t0.27344 -0.039063 q0.1171875 -0.1953125 0.1953125 -0.37109375 t0.27344 -0.019531 z M67.578175 13.085999999999999 q-0.1171875 0.390625 -0.3125 0.46875 t-0.35156 -0.039063 l0.19531 -0.29297 t0.11719 -0.019531 z M92.694875 35.3125 q-0.1171875 0.15625 -0.1171875 0.29296875 t-0.19531 0.25391 q0.078125 0.5078125 -0.17578125 0.87890625 t-0.13672 0.80078 q-0.46875 0.4296875 -0.6640625 0.703125 t-0.41016 0.52734 t-0.50781 0.44922 t-0.72266 0.19531 q-0.15625 0.15625 -0.234375 0.3515625 t-0.27344 0.27344 q-0.4296875 0.1171875 -0.91796875 0.0390625 t-0.99609 0.078125 q-0.78125 -0.234375 -1.3671875 -0.64453125 t-0.97656 -1.0742 q-0.15625 -0.0390625 -0.21484375 -0.1171875 t-0.21484 -0.11719 q-0.1953125 -0.46875 -0.52734375 -0.80078125 t-0.37109 -0.95703 q-0.3515625 -1.0546875 -0.4296875 -1.875 t-0.15625 -1.6016 q-0.1171875 -0.078125 -0.15625 -0.234375 t-0.11719 -0.3125 q0.1953125 -0.2734375 0.1953125 -0.60546875 t-0.058594 -0.66406 t-0.078125 -0.68359 t0.13672 -0.70313 q-0.1953125 -0.078125 -0.2734375 -0.1953125 t-0.23438 -0.23438 q0.078125 -0.2734375 0.13671875 -0.46875 t0.29297 -0.39063 q-0.078125 -0.15625 -0.01953125 -0.29296875 t-0.097656 -0.21484 q-0.3125 0.15625 -0.3515625 0.3515625 q-0.1953125 -0.078125 -0.3125 0.01953125 t-0.27344 0.019531 q0.1953125 -0.4296875 0.3125 -0.3125 q0.0390625 -0.5859375 0.21484375 -0.76171875 t0.44922 -0.097656 q-0.0390625 -0.3125 -0.2734375 -0.4296875 t-0.54688 -0.039063 q-0.1953125 -0.1953125 -0.13671875 -0.41015625 t0.13672 -0.41016 q-0.078125 -0.234375 -0.44921875 -0.37109375 t-0.64453 -0.29297 q-0.078125 -0.0390625 -0.1953125 -0.13671875 t-0.23438 -0.097656 q-0.3125 -0.0390625 -0.625 0.078125 t-0.60547 0.21484 t-0.54688 0.097656 t-0.44922 -0.27344 q-0.078125 0.078125 -0.1953125 0.078125 t-0.23438 0.039063 q-1.09375 -0.078125 -2.03125 -0.21484375 t-1.7188 0.13672 q-0.078125 0.234375 -0.01953125 0.4296875 t0.019531 0.46875 q0.1953125 0.0390625 0.3515625 -0.05859375 t0.35156 0.019531 q0.0390625 0.078125 -0.01953125 0.1953125 t0.019531 0.23438 q-0.390625 0.3125 -0.6640625 0.78125 t0.039063 0.89844 q0.2734375 -0.15625 0.3125 -0.09765625 t0.15625 0.019531 q-0.2734375 0.5859375 -0.48828125 0.78125 t-0.058594 0.625 l0.42969 0 q0 0.1953125 -0.078125 0.3515625 t-0.19531 0.3125 t-0.21484 0.33203 t-0.097656 0.41016 q0 0.4296875 0.09765625 0.87890625 t-0.058594 0.95703 q0.2734375 0.234375 0.25390625 0.33203125 t0.019531 0.29297 q-0.1171875 0.3125 -0.15625 0.5078125 t0 0.42969 q0.3515625 0.2734375 0.2734375 0.37109375 t0.078125 0.17578 q-0.1953125 0.078125 -0.21484375 0.17578125 t-0.17578 0.25391 q0.078125 0.3125 0.05859375 0.76171875 t-0.097656 0.76172 q0.1171875 0.3125 0.2734375 0.546875 t0.23438 0.625 q0.5078125 0.3515625 1.11328125 0.7421875 t1.3867 0.19531 q0.390625 0.15625 0.859375 0.17578125 t0.9375 0.019531 t0.91797 0.019531 t0.80078 0.13672 q0.0390625 0.234375 -0.05859375 0.2734375 t0.019531 0.23438 q-0.625 0.0390625 -1.19140625 0 t-1.2695 -0.039063 q-0.6640625 0.0390625 -1.1328125 0.0390625 t-0.85938 -0.078125 q-0.5078125 0.1953125 -1.15234375 0.15625 t-1.1914 -0.11719 q-0.1171875 0 -0.25390625 0.0390625 t-0.29297 0.039063 l-1.9141 0 q-0.1953125 0 -0.37109375 0.05859375 t-0.33203 0.058594 q-0.15625 -0.0390625 -0.29296875 -0.1171875 t-0.37109 0.039063 q-0.78125 -0.1953125 -1.7578125 -0.234375 t-1.8359 -0.039063 q-0.1953125 0 -0.46875 -0.0390625 t-0.46875 0 q-0.15625 0 -0.2734375 0.05859375 t-0.3125 -0.13672 q-0.46875 0.1171875 -1.11328125 0.21484375 t-1.0742 0.058594 q-0.15625 0.078125 -0.4296875 0.09765625 t-0.50781 -0.039063 t-0.37109 -0.23438 t-0.019531 -0.52734 q0.859375 -0.1171875 1.73828125 -0.1953125 t1.6797 -0.25391 t1.4844 -0.46875 t1.1523 -0.83984 q-0.1953125 -0.703125 0.0390625 -0.859375 t0.39063 -0.42969 q0.1171875 -0.859375 0.09765625 -1.71875 t-0.078125 -1.7383 t-0.11719 -1.7969 t-0.019531 -1.8555 q-0.1953125 -0.078125 -0.2734375 -0.234375 t-0.15625 -0.35156 q0.15625 -0.0390625 0.234375 -0.1171875 t0.19531 -0.15625 q0.0390625 -0.4296875 0.078125 -0.83984375 t-0.11719 -0.64453 q0.3125 -0.3515625 0.1953125 -0.83984375 t-0.039063 -0.95703 q0.2734375 -0.46875 0.21484375 -0.80078125 t0.019531 -0.64453 t0.078125 -0.85938 t0.078125 -0.9375 l0.11719 -0.35156 t-0.039063 -0.42969 q0 -0.7421875 0.1171875 -1.484375 t-0.11719 -1.3281 q-0.15625 0.15625 -0.37109375 0.33203125 t-0.52734 0.097656 q0 -0.6640625 0.390625 -0.8203125 t0.66406 -0.46875 q-0.078125 -0.3125 -0.078125 -0.52734375 t-0.23438 -0.33203 q0.078125 -0.1953125 0.05859375 -0.234375 t-0.17578 -0.19531 q0.1953125 -0.234375 0.33203125 -0.48828125 t0.058594 -0.76172 q-0.1953125 -0.0390625 -0.2734375 0.0390625 t-0.23438 0.039063 q0.15625 -0.4296875 0.41015625 -0.703125 t-0.019531 -0.70313 q-0.1171875 0.078125 -0.25390625 0.1171875 t-0.29297 0.11719 q-0.078125 -0.15625 0.1953125 -0.1953125 t0.3125 -0.11719 q-0.0390625 -0.2734375 -0.2734375 -0.15625 t-0.39063 0 q0.078125 -0.15625 0.21484375 -0.234375 t0.25391 -0.23438 q-0.0390625 -0.2734375 -0.390625 -0.3515625 q-0.390625 -0.078125 -0.33203125 -0.1953125 t0.13672 -0.23438 q-0.625 -0.390625 -1.40625 -0.390625 t-1.5625 -0.11719 q-0.234375 0.0390625 -0.546875 -0.01953125 t-0.58594 0.13672 q-0.3515625 -0.1171875 -0.46875 -0.1953125 t-0.23438 -0.19531 q0.078125 -0.1953125 0.09765625 -0.37109375 t0.17578 -0.25391 q1.25 0.1953125 2.32421875 0.234375 t2.1289 -0.078125 q0.3515625 0.1171875 0.80078125 0.13671875 t0.76172 -0.058594 q1.3671875 -0.1953125 2.83203125 -0.09765625 t2.9102 0.097656 t2.832 -0.058594 t2.5977 -0.25391 q0.3125 0.0390625 0.72265625 0.078125 t0.60547 -0.27344 q0.3515625 0.2734375 0.859375 0.3515625 t0.9375 0.039063 q0.1953125 0.234375 0.52734375 0.29296875 t0.66406 0.097656 t0.625 0.11719 t0.44922 0.35156 q0.625 0 1.1328125 0.1953125 t1.1328 0.27344 q0.5078125 0.46875 0.60546875 0.703125 t0.37109 0.3125 q0.2734375 0.4296875 0.625 0.80078125 t0.74219 0.56641 q0.15625 0.46875 0.3515625 0.68359375 t0.15625 0.72266 q0.078125 0.1953125 0.2734375 0.4296875 q0.0390625 0.5859375 0.15625 1.07421875 t-0.19531 0.99609 q0.078125 0.390625 -0.05859375 0.8984375 t-0.33203 0.78125 q-0.3125 0.8203125 -0.6640625 1.25 t-0.70313 0.82031 q-0.4296875 0.546875 -1.015625 0.99609375 t-1.1328 0.87891 q-0.9375 0.3515625 -1.97265625 0.5859375 t-2.0117 0.42969 q0.5078125 0.15625 1.1328125 0.3125 t1.25 0.19531 q0.1953125 0.3125 0.546875 0.48828125 t0.66406 0.41016 q0.0390625 0.1953125 0.17578125 0.3125 t0.33203 0.11719 q0.078125 0.3125 0.33203125 0.4296875 t0.48828 0.27344 q0 0.3515625 0.1953125 0.546875 q0.3125 1.328125 0.41015625 2.109375 t0.13672 1.7969 q-0.234375 0.546875 0.0390625 1.25 q0.1171875 1.015625 0.13671875 1.66015625 t0.21484 1.3477 q0.2734375 0.3125 0.234375 0.56640625 t0.19531 0.33203 q0.0390625 0.078125 0.1953125 0.13671875 t0.27344 0.13672 q0.15625 0.3515625 0.1171875 0.46875 t-0.15625 0.19531 q0.1953125 0.15625 0.33203125 0.25390625 t0.29297 0.21484 q0.3125 0 0.3515625 -0.25390625 t0.11719 -0.56641 q0.1171875 -0.5859375 0.1953125 -1.34765625 t-0.23438 -1.2695 q-0.078125 -0.546875 0.05859375 -1.09375 t0.44922 -0.85938 q0.3515625 -0.0390625 0.52734375 0.0390625 t0.3125 0.21484 t0.23438 0.29297 t0.25391 0.27344 q-0.1171875 0.390625 -0.13671875 0.87890625 t0.13672 0.83984 z M85.077875 11.602 q-0.4296875 -0.1953125 -0.76171875 0.05859375 t-0.56641 0.48828 q0.3125 -0.0390625 0.703125 -0.15625 t0.625 -0.39063 z M88.476875 13.594000000000001 q-0.4296875 -0.625 -0.99609375 -1.11328125 t-1.5039 -0.60547 q-0.1171875 0.1953125 -0.21484375 0.3515625 t-0.37109 0.19531 l-0.64453 0.52734 t-0.52734 0.25391 q0.1953125 0.3515625 0.29296875 0.21484375 t0.29297 -0.019531 q-0.1953125 0.1953125 -0.48828125 0.2734375 t-0.17578 0.39063 q0.078125 0.234375 0.2734375 0.21484375 t0.39063 -0.019531 q0 -0.3125 0.2734375 -0.3515625 t0.39063 -0.15625 q0.2734375 0.078125 0.390625 -0.15625 t0.3125 -0.35156 q0.15625 0.0390625 0.234375 -0.05859375 t0.13672 -0.19531 t0.13672 -0.15625 t0.19531 0.019531 q-0.3515625 0.46875 -0.76171875 0.8984375 t-0.87891 0.54688 q0 0.234375 -0.2734375 0.29296875 t-0.19531 0.25391 q0.1953125 -0.078125 0.25390625 -0.13671875 t0.29297 0.019531 q0.078125 -0.1953125 0.33203125 -0.234375 t0.48828 0 q-0.234375 0.15625 -0.33203125 0.15625 l-0.17578 0 q-0.4296875 0.4296875 -0.5859375 0.546875 t-0.42969 0.19531 q-0.078125 0.234375 -0.078125 0.46875 q0.390625 0.1171875 0.46875 -0.078125 t0.39063 -0.15625 q0.234375 -0.390625 0.625 -0.46875 t0.78125 -0.27344 q0.078125 -0.390625 0.44921875 -0.4296875 t0.64453 -0.15625 q-0.078125 -0.15625 -0.21484375 -0.21484375 t-0.29297 -0.13672 q-0.2734375 0.3515625 -0.2734375 0.37109375 t-0.039063 0.019531 q0.0390625 -0.390625 0.21484375 -0.41015625 t0.37109 -0.058594 q0.3125 -0.0390625 0.44921875 -0.13671875 t0.37109 -0.13672 z M85.31287499999999 12.07 q-0.234375 -0.078125 -0.4296875 -0.01953125 t-0.37109 0.15625 t-0.35156 0.17578 t-0.37109 0 q-0.2734375 0.2734375 -0.1953125 0.7421875 q0.2734375 -0.0390625 0.4296875 -0.1953125 t0.39063 -0.11719 q-0.078125 -0.1171875 0.078125 -0.21484375 t0.3125 0.019531 q0.0390625 -0.3515625 0.234375 -0.3515625 t0.27344 -0.19531 z M83.710875 11.367 q-0.3125 -0.234375 -0.703125 -0.29296875 t-0.82031 -0.21484 q0.078125 0.3125 0.3515625 0.44921875 t0.39063 0.37109 q0.1953125 -0.078125 0.4296875 -0.13671875 t0.35156 -0.17578 z M90.273875 17.969 q-0.15625 -0.1171875 -0.25390625 -0.05859375 t-0.29297 0.097656 q-0.2734375 0.1953125 -0.41015625 0.33203125 t-0.33203 0.25391 q-0.078125 -0.078125 -0.2734375 -0.078125 t-0.19531 0.15625 q-0.234375 0.234375 -0.3515625 0.3125 t-0.19531 0.23438 q0.234375 -0.078125 0.25390625 0.09765625 t0.21484 0.17578 q0.0390625 -0.1953125 0.17578125 -0.33203125 t0.019531 -0.29297 q0.4296875 0.078125 0.80078125 -0.13671875 t0.80078 -0.33203 q-0.0390625 -0.15625 -0.01953125 -0.21484375 t0.058594 -0.21484 z M90.31287499999999 16.797 q0.0390625 -0.3125 -0.0390625 -0.546875 t-0.15625 -0.54688 q-0.546875 0.15625 -0.8984375 0.46875 t-0.78125 0.50781 q-0.2734375 0.1171875 -0.48828125 0.3125 t-0.33203 0 q0.5078125 -0.546875 0.78125 -0.859375 t0.66406 -0.54688 q0.2734375 0 0.4296875 -0.2734375 q0.1171875 -0.390625 0 -0.33203125 t-0.15625 -0.097656 q0.1953125 -0.5078125 -0.13671875 -0.72265625 t-0.72266 -0.097656 q-0.078125 0.3515625 -0.29296875 0.44921875 t-0.52734 0.17578 q-0.546875 0.390625 -0.76171875 0.60546875 t-0.60547 0.13672 q0.0390625 0.15625 -0.1171875 0.15625 t-0.27344 0.039063 q-0.234375 0.390625 -0.234375 0.33203125 t-0.078125 -0.019531 q0.1171875 0.2734375 0.234375 0.33203125 t0.3125 0.097656 q0.1171875 -0.234375 0.25390625 -0.21484375 t0.17578 -0.17578 q-0.078125 0.2734375 -0.234375 0.4296875 t-0.54688 0.078125 q-0.390625 0.078125 -0.52734375 0.05859375 t-0.17578 0.097656 q-0.3515625 0.546875 -0.234375 0.8203125 t-0.19531 0.35156 q0.2734375 0.3515625 0.1171875 0.625 q0.1953125 0.078125 0.3125 0.01953125 t0.23438 -0.13672 t0.21484 -0.11719 t0.29297 0.078125 q-0.1953125 -0.3125 0.15625 -0.41015625 t0.46875 -0.29297 q0.2734375 -0.1171875 0.4296875 -0.29296875 t0.39063 -0.29297 q0.234375 0.3515625 0.1953125 0.41015625 t-0.15625 0.019531 q-0.0390625 0.234375 -0.234375 0.33203125 t-0.41016 0.17578 t-0.39063 0.17578 t-0.17578 0.25391 q-0.234375 -0.078125 -0.41015625 0.0390625 t-0.41016 0.19531 q0.0390625 0.234375 -0.09765625 0.3515625 t-0.13672 0.50781 q0 0.15625 -0.09765625 0.21484375 t-0.17578 0.13672 q-0.2734375 0.3515625 -0.41015625 0.5859375 t-0.13672 0.70313 q0.234375 -0.1171875 0.2734375 -0.17578125 t0.11719 -0.058594 q-0.078125 -0.15625 0.01953125 -0.17578125 t0.21484 -0.019531 t0.25391 0.019531 t0.17578 -0.097656 q0.390625 -0.3125 0.859375 -0.72265625 t1.0547 -0.44922 q0.078125 -0.2734375 0.13671875 -0.33203125 t0.17578 -0.019531 q0.3515625 -0.625 0.8203125 -0.625 q0.0390625 -0.15625 0.25390625 -0.25390625 t0.41016 -0.21484 q0.0390625 -0.3125 0.078125 -0.37109375 t0.19531 -0.019531 q0.1171875 0.1171875 0.1953125 0.0390625 t0.17578 -0.11719 t0.11719 -0.097656 t-0.13672 -0.17578 q0.1953125 0.0390625 0.29296875 0.01953125 t0.25391 0.019531 q-0.0390625 -0.4296875 0.0390625 -0.41015625 t0.11719 -0.058594 z M89.843875 19.609 q-0.1953125 -0.15625 -0.41015625 0.01953125 t-0.41016 0.058594 q-0.3515625 0.5859375 -0.72265625 0.64453125 t-0.56641 0.33203 q-0.3125 -0.078125 -0.37109375 0.1171875 t-0.29297 0.078125 q0.2734375 0.46875 0.52734375 0.4296875 t0.48828 0.11719 q-0.15625 0.1171875 0 0.4296875 q0.546875 -0.1953125 0.80078125 -0.6640625 t0.68359 -0.74219 q0.0390625 -0.234375 0.13671875 -0.390625 t0.13672 -0.42969 z M88.007875 19.883 q-0.5859375 0 -0.91796875 0.29296875 t-0.87891 0.41016 q0.0390625 0.1171875 -0.078125 0.234375 t-0.35156 0.039063 q0 0.3515625 0.1171875 0.2734375 t0.23438 -0.17578 t0.23438 -0.17578 t0.27344 -0.039063 q0.234375 -0.3125 0.6640625 -0.4296875 t0.70313 -0.42969 z M85.663875 21.211 q-0.546875 -0.078125 -0.9765625 0.234375 t-0.82031 0.58594 q0.4296875 -0.078125 0.8984375 -0.3515625 t0.89844 -0.46875 z M87.18787499999999 21.641 q-0.5078125 0.15625 -0.64453125 0.21484375 t-0.33203 0.13672 q-0.1171875 -0.1171875 -0.33203125 -0.01953125 t-0.29297 0.21484 q-0.4296875 -0.0390625 -0.60546875 0.1953125 t-0.56641 0.23438 q-0.1953125 0.15625 -0.46875 0.21484375 t-0.50781 0.17578 q-0.1171875 0.1953125 -0.29296875 0.29296875 t-0.39063 0.17578 t-0.39063 0.17578 t-0.29297 0.25391 q0.5859375 0.078125 1.09375 -0.05859375 t1.0938 -0.21484 q0.2734375 -0.3515625 0.68359375 -0.546875 t0.85938 -0.37109 t0.82031 -0.41016 t0.56641 -0.66406 z M84.296875 17.266 q-0.1953125 0.1171875 -0.46875 0.09765625 t-0.42969 -0.17578 q0.0390625 -0.390625 0.2734375 -0.52734375 t0.50781 -0.29297 l-0.078125 -0.39063 t-0.11719 -0.39063 q-0.2734375 0.078125 -0.390625 -0.0390625 t-0.11719 -0.29297 t0.097656 -0.35156 t0.21484 -0.25391 q-0.0390625 -0.1953125 -0.13671875 -0.3125 t-0.13672 -0.35156 q-0.1171875 0.078125 -0.33203125 0.05859375 t-0.25391 -0.17578 q0.2734375 -0.1953125 0.15625 -0.48828125 l-0.19531 -0.48828 q-0.2734375 0.0390625 -0.44921875 0.15625 t-0.48828 0.039063 q-0.0390625 -0.546875 0.25390625 -0.56640625 t0.29297 -0.33203 q0 -0.2734375 -0.390625 -0.4296875 t-0.58594 -0.39063 q-1.25 -0.3125 -2.6171875 -0.41015625 t-2.6953 0.097656 q-0.1953125 0.1953125 -0.5078125 0.234375 t-0.625 0 q-0.2734375 0.3125 -0.60546875 0.56640625 t-0.097656 0.87891 l0.39063 -0.097656 t0.3125 0.13672 q-0.078125 0.1953125 -0.21484375 0.390625 t-0.44922 0.23438 q-0.1953125 0.2734375 -0.17578125 0.703125 t-0.058594 0.66406 q0.1953125 -0.078125 0.3515625 -0.09765625 t0.35156 -0.058594 q-0.078125 0.390625 -0.21484375 0.4296875 t-0.21484 0.11719 q-0.15625 0.15625 -0.21484375 0.29296875 t-0.058594 0.3125 t0.019531 0.37109 t-0.058594 0.35156 q0.390625 0.3125 0.44921875 0.234375 t0.13672 0.039063 q-0.0390625 0.1953125 -0.1171875 0.234375 t-0.15625 0.11719 q-0.1953125 0.1953125 -0.17578125 0.60546875 t0.097656 0.56641 q0.234375 -0.0390625 0.4296875 0.01953125 t0.27344 -0.097656 q0.234375 0.4296875 -0.078125 0.5859375 t-0.42969 0.50781 q-0.15625 0.46875 -0.234375 0.7421875 q0.4296875 0.1953125 0.29296875 0.41015625 t-0.37109 0.29297 q-0.0390625 0.390625 -0.01953125 0.5859375 t-0.097656 0.46875 q0.1171875 0.390625 0.1171875 0.6640625 t-0.078125 0.625 q0.2734375 0.46875 0.078125 0.64453125 t-0.11719 0.60547 q0.703125 0.1171875 1.40625 0 t1.2891 0.15625 q1.2109375 -0.1171875 1.9921875 -0.29296875 t1.6016 -0.29297 q0.9375 -0.3125 1.42578125 -0.76171875 t0.99609 -0.87891 q0 -0.2734375 0.13671875 -0.5078125 t0.29297 -0.44922 t0.3125 -0.44922 t0.19531 -0.54688 q-0.1953125 0.0390625 -0.21484375 -0.1171875 t-0.17578 -0.19531 q0.078125 -0.1953125 0.15625 -0.3515625 t0.19531 -0.35156 q0.2734375 -0.0390625 0.390625 -0.2734375 t0.15625 -0.52734 t0.019531 -0.625 t-0.019531 -0.60547 z M87.03087500000001 27.734 q-0.1171875 -0.078125 -0.234375 0 l-0.23438 0.15625 q0.1171875 0.0390625 0.25390625 0.01953125 t0.21484 -0.17578 z M73.788875 12.812000000000001 q0.0390625 -0.15625 -0.01953125 -0.21484375 t-0.019531 -0.25391 q-0.703125 0.2734375 -1.19140625 0.60546875 t-0.91797 0.52734 q-0.5859375 0.5078125 -1.1328125 0.8203125 q0.1953125 0.1953125 0.37109375 0.13671875 t0.37109 -0.19531 t0.41016 -0.27344 t0.48828 -0.097656 q0.078125 -0.1171875 0.17578125 -0.234375 t0.29297 -0.039063 q0.46875 -0.3125 0.78125 -0.390625 t0.39063 -0.39063 z M87.382875 28.398 q-0.1953125 -0.0390625 -0.2734375 0.05859375 t-0.23438 0.019531 q0 0.234375 0.234375 0.1953125 t0.27344 -0.27344 z M74.140875 11.133 q-0.2734375 -0.078125 -0.68359375 -0.15625 t-0.60547 0.11719 q-0.4296875 -0.078125 -0.83984375 -0.1171875 t-1.0742 0.039063 q-0.234375 0.3125 -0.60546875 0.52734375 t-0.76172 0.41016 q-0.0390625 -0.4296875 0.13671875 -0.37109375 t0.29297 -0.058594 q-0.2734375 -0.2734375 -0.0390625 -0.3125 t0.35156 -0.19531 q-0.6640625 -0.078125 -1.2109375 0 t-1.0938 0.078125 q0 0.3125 0.21484375 0.44921875 t0.17578 0.44922 q0.390625 0 0.6640625 -0.078125 t0.46875 0.039063 q-0.1953125 0.1953125 -0.41015625 0.25390625 t-0.48828 0.13672 q0.1953125 0.4296875 0.3515625 0.2734375 t0.3125 -0.15625 q-0.0390625 0.0390625 -0.29296875 0.2734375 t-0.25391 0.625 q0.4296875 0.1171875 0.4296875 -0.15625 q0.078125 -0.0390625 0.234375 -0.0390625 t0.19531 -0.11719 q0 0.234375 -0.13671875 0.3515625 t-0.21484 0.35156 q-0.390625 0.1171875 -0.546875 0.9375 q0.546875 0.15625 0.91796875 -0.09765625 t0.80078 -0.29297 q0.0390625 -0.234375 0.25390625 -0.41015625 t0.39063 -0.35156 t0.39063 -0.35156 t0.52734 -0.17578 q-0.0390625 -0.234375 0.09765625 -0.3125 t0.17578 -0.27344 q-0.15625 -0.0390625 -0.234375 0.0390625 t-0.23438 0 q0.15625 -0.1171875 0.44921875 -0.2734375 t0.60547 0.039063 q0.15625 -0.3125 0.2734375 -0.3515625 t0.27344 -0.039063 q0.078125 -0.3125 0.37109375 -0.37109375 t0.37109 -0.33203 z M84.023875 25.586 q-0.390625 -0.2734375 -0.72265625 -0.13671875 t-0.25391 0.52734 q0.3515625 0.078125 0.56640625 -0.05859375 t0.41016 -0.33203 z M85.663875 26.406 q-0.078125 -0.3125 -0.390625 -0.390625 t-0.58594 0 q-0.078125 0.3125 -0.390625 0.41015625 t-0.46875 0.37109 q0.15625 -0.2734375 0.3125 -0.5078125 t0.42969 -0.11719 q-0.0390625 -0.1171875 -0.01953125 -0.17578125 t0.019531 -0.25391 q-0.4296875 0.15625 -0.78125 0.3125 t-0.46875 0.58594 q0.390625 0.4296875 0.3515625 0.546875 q0.234375 0.4296875 0.13671875 0.4296875 t-0.17578 0.078125 q0.6640625 0 1.03515625 -0.21484375 t0.68359 -0.64453 q-0.1953125 0.1171875 -0.6640625 0.0390625 q-0.15625 0.1953125 -0.234375 0.234375 t-0.15625 0.039063 q0.1953125 -0.078125 0.21484375 -0.234375 t0.13672 -0.23438 q0.3515625 0.1171875 0.546875 -0.05859375 t0.46875 -0.21484 z M86.56287499999999 27.227 q-0.3125 -0.1953125 -0.64453125 -0.0390625 t-0.68359 0.11719 q-0.4296875 0.3515625 -0.64453125 0.68359375 t-0.68359 0.33203 l0.625 0.19531 q0.078125 -0.1953125 0.37109375 -0.3125 t0.60547 -0.078125 q0.1953125 -0.3125 0.5859375 -0.390625 t0.46875 -0.50781 z M86.40587500000001 28.867 q-0.15625 0.0390625 -0.29296875 0.05859375 t-0.21484 0.097656 q0.390625 0.1171875 0.5078125 -0.15625 z M86.444875 28.047 q-0.3125 0.1171875 -0.5859375 0.21484375 t-0.39063 -0.097656 q0 0.1953125 -0.15625 0.25390625 t-0.23438 0.21484 q-0.46875 0.15625 -0.78125 0.33203125 t-0.58594 0.48828 q0.0390625 0.1953125 -0.078125 0.2734375 t0 0.23438 q0.1953125 -0.078125 0.29296875 -0.1953125 t0.25391 -0.039063 q0.390625 -0.2734375 0.64453125 -0.48828125 t0.56641 -0.29297 q0.0390625 -0.3125 0.29296875 -0.3515625 t0.44922 -0.19531 q0.1171875 -0.2734375 0.17578125 -0.3125 t0.13672 -0.039063 z M87.694875 29.453 q-0.625 0.3125 -0.87890625 0.48828125 t-0.60547 0.37109 q0.078125 0.078125 -0.078125 0.1953125 t-0.35156 0.039063 q-0.15625 0.5078125 -0.7421875 0.625 q0.078125 0.15625 0.17578125 0.13671875 t0.21484 -0.078125 t0.23438 -0.15625 t0.19531 -0.13672 q0.3515625 0.0390625 0.52734375 -0.13671875 t0.41016 -0.29297 q0.234375 0.15625 0.390625 -0.01953125 t0.46875 -0.097656 q0.234375 -0.1171875 0.17578125 -0.41015625 t-0.13672 -0.52734 z M73.632875 13.437000000000001 q-0.1171875 0.0390625 -0.25390625 0.01953125 t-0.25391 0.058594 q-0.4296875 0.234375 -0.72265625 0.37109375 t-0.60547 0.13672 q-0.1953125 0.234375 -0.3515625 0.2734375 t-0.42969 0.11719 q-0.1953125 0.2734375 -0.5078125 0.4296875 t-0.70313 0.27344 q-0.4296875 0.4296875 -0.703125 0.60546875 t-0.39063 0.52734 q0 0.1171875 0.0390625 0.29296875 t0.11719 0.33203 q0 -0.2734375 0.234375 -0.29296875 t0.42969 -0.097656 q0.4296875 -0.390625 0.64453125 -0.5078125 t0.29297 -0.3125 q0.234375 -0.15625 0.46875 -0.1171875 q0.1953125 -0.390625 0.64453125 -0.546875 t0.64453 -0.50781 q0.4296875 -0.1953125 0.76171875 -0.46875 t0.64453 -0.58594 z M70.585975 14.492 q-0.15625 -0.078125 -0.25390625 0.01953125 t-0.17578 0.21484 q0.1953125 0.078125 0.2734375 -0.01953125 t0.15625 -0.21484 z M87.851875 32.9297 q0.0390625 -0.46875 0.05859375 -0.8203125 t-0.058594 -0.78125 q-0.234375 0.2734375 -0.37109375 0.25390625 t-0.21484 0.019531 q-0.078125 0.3515625 -0.41015625 0.44921875 t-0.64453 0.21484 q-0.078125 0.1171875 -0.078125 0.4296875 q0.4296875 -0.15625 0.60546875 -0.21484375 t0.25391 -0.21484 q0.390625 0.078125 0.48828125 0.1953125 t0.097656 0.3125 q-0.3515625 0.3515625 -0.6640625 0.4296875 q0.3125 0.0390625 0.52734375 -0.05859375 t0.41016 -0.21484 z M86.366875 29.492 q-0.1953125 0.0390625 -0.33203125 0.1171875 t-0.33203 0.039063 q-0.390625 0.5078125 -0.9765625 0.72265625 t-1.0547 0.72266 q0.3125 0.3515625 0.52734375 0.17578125 t0.42969 -0.39063 t0.44922 -0.37109 t0.58594 -0.23438 q0.078125 -0.3125 0.3515625 -0.390625 t0.35156 -0.39063 z M73.788875 14.805 q0 -0.1953125 -0.0390625 -0.33203125 t-0.078125 -0.25391 q-0.2734375 0.1171875 -0.56640625 0.234375 t-0.52734 0.3125 q-0.2734375 0.15625 -0.44921875 0.37109375 t-0.37109 0.29297 q-0.3125 0.2734375 -0.390625 0.25390625 t-0.19531 0.019531 q-0.3125 0.1953125 -0.4296875 0.390625 t-0.3125 -0.039063 q0.078125 0.46875 0.234375 0.3515625 t0.23438 -0.27344 q0.3125 -0.0390625 0.41015625 -0.078125 t0.097656 0.039063 q0 0.2734375 -0.1953125 0.2734375 l-0.27344 0 q-0.3125 0.1953125 -0.5859375 0.390625 t-0.70313 0.15625 q-0.078125 0.3515625 -0.44921875 0.4296875 t-0.41016 0.46875 q0.1171875 0.1953125 0.0390625 0.3515625 t-0.19531 0.27344 l0.17578 0.17578 t0.019531 0.21484 q0.390625 -0.1171875 0.33203125 -0.17578125 t0.019531 -0.13672 t0.23438 -0.11719 t0.19531 -0.078125 q0.078125 0.3125 0.1953125 0.33203125 t0.23438 -0.019531 q0.234375 -0.234375 0.33203125 -0.21484375 t0.097656 0.17578 q-0.5078125 0.0390625 -0.859375 0.390625 t-0.82031 0.50781 q-0.078125 0.3125 -0.01953125 0.48828125 t-0.13672 0.37109 q0.1953125 0.390625 0.2734375 0.33203125 t0.19531 0.058594 q0.1171875 -0.46875 0.625 -0.68359375 t0.66406 -0.33203 q0.6640625 -0.390625 0.8984375 -0.64453125 t0.54688 -0.48828 q0.3515625 -0.3125 0.703125 -0.37109375 t0.58594 -0.21484 q0.4296875 -0.3515625 0.52734375 -0.546875 t0.019531 -0.39063 q-0.1953125 0.1171875 -0.4296875 0.15625 t-0.35156 0.078125 q0.078125 -0.1171875 0.1953125 -0.1953125 t0.39063 -0.039063 q0.15625 -0.2734375 0.2734375 -0.60546875 t-0.078125 -0.68359 q-0.1953125 0.078125 -0.33203125 0.15625 t-0.37109 0.078125 q-0.0390625 0.234375 -0.234375 0.2734375 t-0.19531 -0.15625 q0.4296875 -0.4296875 0.72265625 -0.46875 t0.37109 -0.35156 q-0.703125 0.1171875 -1.2890625 0.390625 q0.1953125 -0.15625 0.3125 -0.2734375 t0.3125 -0.19531 q0.5078125 -0.1953125 0.8203125 -0.4296875 z M73.788875 18.359 q0.078125 -0.4296875 -0.46875 -0.3125 q-0.3515625 0.390625 -0.52734375 0.4296875 t-0.33203 -0.039063 q-0.0390625 0.3515625 -0.2734375 0.3125 t-0.27344 0.11719 q-0.4296875 0.234375 -0.3125 0.3515625 t-0.078125 0.19531 q-0.2734375 0.2734375 -0.1953125 0.4296875 q0.078125 -0.2734375 0.4296875 -0.15625 q-0.078125 -0.234375 0.1171875 -0.1953125 t0.39063 -0.039063 q0.0390625 -0.234375 0.29296875 -0.3515625 t0.50781 -0.21484 t0.48828 -0.19531 t0.23438 -0.33203 z M88.007875 34.2578 q-0.3125 -0.3515625 -0.5078125 -0.2734375 t-0.27344 -0.039063 q-0.1953125 0.3125 -0.1171875 0.46875 q0.3125 -0.078125 0.48828125 -0.078125 t0.41016 -0.078125 z M86.015875 32.7344 l-0.35156 0.3125 q0.15625 -0.15625 0.2734375 -0.17578125 t0.078125 -0.13672 z M73.944875 20.078 q-0.078125 -0.2734375 -0.21484375 -0.29296875 t-0.3125 0.097656 t-0.39063 0.23438 t-0.41016 0.078125 q0.078125 0.2734375 -0.09765625 0.2734375 t-0.17578 0.19531 q0.1953125 0.078125 0.4296875 -0.01953125 t0.39063 -0.21484 q0.1953125 -0.1171875 0.41015625 -0.17578125 t0.37109 -0.17578 z M87.499875 30.976599999999998 q-0.3125 0.0390625 -0.33203125 -0.01953125 t-0.13672 -0.097656 q-0.46875 0.234375 -0.68359375 0.390625 t-0.56641 0.078125 q-0.703125 0.5078125 -1.015625 0.8203125 q-0.3125 -0.0390625 -0.5078125 0.25390625 t-0.46875 0.41016 q-0.078125 0.390625 -0.01953125 0.7421875 t0.13672 0.68359 t0.17578 0.64453 t0.058594 0.625 q0 0.1171875 -0.0390625 0.25390625 t0.11719 0.25391 q0.1953125 -0.1171875 0.33203125 -0.37109375 t0.41016 -0.17578 q0.0390625 -0.546875 0.1171875 -0.68359375 t0 -0.33203 q0.1953125 -0.3125 0.41015625 -0.52734375 t0.41016 -0.44922 q-0.3515625 0.078125 -0.546875 0.33203125 t-0.50781 0.44922 q-0.2734375 0 -0.4296875 -0.1953125 t-0.23438 -0.46875 q0.15625 -0.2734375 0.4296875 -0.4296875 t0.625 -0.27344 q-0.078125 -0.1953125 0.1171875 -0.3515625 t0.35156 -0.11719 q0.3125 -0.1953125 0.2734375 -0.2734375 t0 -0.19531 q0.2734375 -0.0390625 0.390625 -0.25390625 t0.46875 -0.097656 q0.15625 -0.1953125 0.3125 -0.3515625 t0.35156 -0.27344 z M88.671875 37.1875 q-0.390625 -0.078125 -0.5078125 -0.0390625 t-0.11719 -0.039063 q-0.078125 0.15625 -0.1953125 0.21484375 t-0.19531 0.25391 q0.1953125 -0.0390625 0.4296875 0.01953125 t0.35156 -0.13672 z M72.109375 21.094 q-0.1953125 -0.1953125 -0.3125 -0.234375 t-0.11719 0.078125 q0.15625 0.1953125 0.4296875 0.15625 z M73.749875 21.25 q-0.3515625 0.0390625 -0.56640625 0.21484375 t-0.41016 0.37109 q-0.15625 0.078125 -0.29296875 0.1171875 t-0.21484 -0.039063 q-0.0390625 0.078125 -0.078125 0.1953125 t-0.11719 0.19531 q-0.5078125 0.0390625 -0.5078125 0.4296875 q0.1953125 -0.0390625 0.2734375 -0.15625 t0.3125 -0.039063 q0.078125 -0.2734375 0.33203125 -0.29296875 t0.37109 0.058594 q0.3515625 -0.1953125 0.72265625 -0.37109375 t0.17578 -0.68359 z M88.163875 36.0937 q0.078125 -0.1171875 0.078125 -0.3515625 t-0.078125 -0.42969 q-0.2734375 0.0390625 -0.37109375 0.17578125 t-0.37109 0.17578 q-0.3125 -0.2734375 -0.13671875 -0.37109375 t0.29297 -0.097656 q0 -0.1953125 0.1171875 -0.25390625 l0.27344 -0.13672 q-0.3515625 -0.078125 -0.44921875 -0.078125 l-0.17578 0 q-0.390625 0.1953125 -0.46875 0.33203125 t-0.42969 0.058594 q0.0390625 0.078125 -0.0390625 0.13671875 t-0.19531 0.11719 t-0.19531 0.11719 t-0.039063 0.13672 q-0.1953125 -0.0390625 -0.29296875 0.13671875 t-0.25391 0.097656 q0 0.1953125 -0.1953125 0.25390625 t-0.35156 -0.019531 q-0.3125 0.3515625 -0.390625 0.390625 q-0.15625 0.234375 0.01953125 0.3515625 t0.25391 0.39063 q0.15625 0 0.25390625 -0.0390625 t0.25391 0 q0.1953125 -0.3125 0.390625 -0.52734375 t0.42969 -0.21484 q0.0390625 -0.234375 0.390625 -0.3125 q0.4296875 -0.15625 0.56640625 -0.25390625 t0.17578 0.21484 q-0.46875 0 -0.5078125 0.4296875 q-0.3125 0.15625 -0.3515625 0.3125 q0.390625 -0.1953125 0.5078125 -0.1953125 t0.3125 -0.078125 q-0.1953125 0.3125 -0.48828125 0.546875 t-0.60547 0.15625 q-0.0390625 0.3515625 -0.1953125 0.390625 l-0.3125 0.078125 q0.078125 0.15625 0.01953125 0.2734375 t0.019531 0.27344 q0.625 -0.2734375 1.0546875 -0.6640625 t1.0156 -0.70313 q0.15625 -0.4296875 0.01953125 -0.390625 t-0.29297 -0.039063 q0.2734375 -0.2734375 0.44921875 -0.29296875 t0.29297 -0.097656 z M73.632875 19.062 q-0.703125 0 -1.11328125 0.37109375 t-1.1133 0.48828 q-0.1953125 0.3125 -0.60546875 0.390625 t-0.60547 0.39063 q-0.4296875 0.234375 -0.78125 0.48828125 t-0.78125 0.33203 q-0.078125 0.546875 -0.1171875 0.8984375 t0.078125 0.625 l-0.19531 0.48828 t0.078125 0.48828 q0.234375 0.0390625 0.29296875 -0.09765625 t0.25391 0.019531 q0.46875 -0.2734375 0.56640625 -0.44921875 t0.41016 -0.097656 q0.15625 -0.2734375 0.37109375 -0.5078125 t0.52734 -0.19531 q0.3515625 -0.4296875 0.8203125 -0.6640625 t0.85938 -0.54688 q0.1171875 -0.15625 0.21484375 -0.234375 t0.23438 -0.11719 t0.25391 -0.097656 t0.11719 -0.25391 q-0.625 0.2734375 -1.23046875 0.5078125 t-1.0742 0.66406 q-0.3125 0.1171875 -0.546875 0.21484375 t-0.42969 0.097656 q-0.3125 0.3125 -0.46875 0.5078125 t-0.50781 0.11719 q-0.1171875 -0.3125 0.01953125 -0.56640625 t0.44922 -0.25391 q0.703125 -0.5078125 1.26953125 -0.99609375 t1.2695 -0.68359 q0.3515625 -0.4296875 0.7421875 -0.703125 t0.74219 -0.625 z M89.06287499999999 37.6953 q-0.15625 -0.1953125 -0.29296875 -0.1171875 t-0.25391 0.21484 t-0.25391 0.23438 t-0.29297 -0.019531 q-0.078125 -0.2734375 -0.17578125 -0.078125 t-0.17578 0.39063 q-0.390625 0.234375 -0.64453125 0.3515625 t-0.41016 0.39063 q0.234375 0.2734375 0.7421875 0.3515625 t0.89844 -0.078125 q0.078125 -0.234375 -0.0390625 -0.2734375 t-0.078125 -0.19531 q0.0390625 -0.1171875 0.1953125 -0.09765625 t0.23438 -0.058594 q-0.078125 -0.2734375 0.01953125 -0.37109375 t0.29297 -0.058594 q0 -0.2734375 0.078125 -0.33203125 t0.15625 -0.25391 z M73.788875 23.008 q0.0390625 -0.3125 -0.17578125 -0.25390625 t-0.41016 0.058594 q-0.1953125 0.15625 -0.3515625 0.29296875 t-0.3125 0.29297 t-0.33203 0.27344 t-0.44922 0.11719 l-0.11719 0.23438 t-0.15625 0.27344 q0.15625 -0.0390625 0.37109375 -0.17578125 t0.33203 -0.21484 q0.3515625 -0.1953125 0.95703125 -0.390625 t0.64453 -0.50781 z M73.632875 24.531 q-0.1953125 -0.234375 -0.2734375 -0.15625 t-0.15625 0.17578 t-0.15625 0.17578 t-0.23438 0 q-0.0390625 0.1953125 -0.234375 0.234375 t-0.19531 0.27344 q0.15625 0 0.29296875 -0.05859375 t0.29297 0.019531 q0.3515625 -0.2734375 0.44921875 -0.41015625 t0.21484 -0.25391 z M72.968875 22.656 q-0.234375 -0.15625 -0.4296875 -0.234375 t-0.27344 0.11719 q-0.1171875 0.15625 -0.2734375 0.2734375 t-0.35156 0.039063 q-0.859375 0.625 -1.46484375 1.015625 t-1.2695 0.74219 q0 0.1171875 -0.1171875 0.21484375 t-0.25391 0.21484 t-0.19531 0.23438 t0.058594 0.3125 q0.15625 0.1953125 0.1953125 0.09765625 t0.23438 -0.019531 q0.3515625 -0.5078125 0.8984375 -0.859375 q0.546875 -0.3125 0.83984375 -0.5859375 t0.68359 -0.27344 q0.1953125 -0.4296875 0.64453125 -0.68359375 t0.83984 -0.41016 z M72.265675 26.055 q0.0390625 -0.15625 -0.01953125 -0.25390625 t-0.13672 -0.17578 q-0.234375 0.4296875 -0.078125 0.390625 t0.23438 0.039063 z M73.476875 25.508 q-0.078125 0.234375 -0.46875 0.1953125 q-0.3515625 0 -0.3515625 0.13671875 l0 0.25391 q-0.3125 -0.1171875 -0.29296875 0.09765625 t-0.17578 0.058594 q-0.078125 0.3125 -0.33203125 0.5859375 t-0.52734 0.19531 q-0.0390625 0.1171875 -0.09765625 0.234375 t-0.29297 0.039063 q-0.0390625 0.1171875 -0.0390625 0.2734375 t0.078125 0.19531 q0.3125 -0.078125 0.56640625 -0.25390625 t0.48828 -0.25391 q0.2734375 -0.234375 0.46875 -0.3515625 t0.46875 -0.19531 q0.46875 -0.1953125 0.5859375 -0.546875 t-0.078125 -0.66406 z M72.382775 24.297 q-0.3515625 0.1171875 -0.41015625 0.17578125 t-0.17578 0.019531 q-0.703125 0.5078125 -1.25 0.76171875 t-0.9375 0.72266 q-0.1953125 0.1171875 -0.5078125 0.2734375 t-0.54688 0.35156 t-0.33203 0.44922 t0.097656 0.56641 q-0.0390625 -0.234375 0.17578125 -0.29296875 t0.29297 -0.097656 q0.46875 -0.234375 0.56640625 -0.37109375 t0.29297 -0.058594 q0.1953125 -0.1953125 0.13671875 -0.2734375 t0.097656 -0.11719 q0.1953125 -0.1171875 0.4296875 -0.3125 t0.54688 -0.35156 q0.15625 -0.3125 0.46875 -0.46875 t0.50781 -0.46875 q0.2734375 0 0.29296875 -0.13671875 t0.21484 -0.13672 z M73.593875 29.609 q-0.3125 0.078125 -0.390625 0.13671875 t-0.23438 0.11719 t-0.29297 0.097656 t-0.17578 0.15625 q0.234375 0.1953125 0.3125 0.05859375 t0.35156 -0.13672 q0.2734375 -0.15625 0.4296875 -0.4296875 z M70.781275 27.891 q-0.234375 0.0390625 -0.3125 0.0390625 t-0.15625 0.078125 q0.078125 0.078125 0.234375 0.01953125 t0.23438 -0.13672 z M71.953175 26.094 q-0.2734375 0 -0.4296875 -0.078125 q-0.703125 0.5859375 -1.38671875 0.99609375 t-1.3477 0.83984 q-0.2734375 0.3515625 -0.33203125 0.3515625 t-0.13672 0.078125 q-0.0390625 0.1953125 -0.17578125 0.48828125 t0.058594 0.37109 q0.15625 -0.0390625 0.1953125 -0.13671875 t0.11719 -0.17578 q0.625 -0.234375 0.99609375 -0.703125 t1.0352 -0.70313 q0.078125 -0.2734375 0.3125 -0.4296875 t0.42969 -0.19531 q0 -0.1953125 0.29296875 -0.33203125 t0.37109 -0.37109 z M70.312475 28.125 q-0.1171875 -0.078125 -0.234375 -0.01953125 t-0.3125 -0.019531 q-0.0390625 0.15625 0.0390625 0.21484375 t0.19531 0.058594 t0.21484 -0.058594 t0.097656 -0.17578 z M73.280875 27.109 q-0.390625 -0.0390625 -0.72265625 0.15625 t-0.64453 0.27344 q-0.15625 0.234375 -0.44921875 0.3125 t-0.37109 0.39063 q-0.78125 0.5078125 -1.71875 0.8203125 q0 0.1171875 -0.078125 0.25390625 t-0.27344 0.17578 q-0.2734375 0.15625 -0.4296875 0.390625 t-0.46875 0.15625 q0 0.3125 0.05859375 0.48828125 t-0.058594 0.41016 q0.234375 0 0.4296875 -0.1171875 t0.37109 -0.27344 t0.35156 -0.27344 t0.41016 -0.11719 q0 -0.15625 0.09765625 -0.25390625 t0.21484 -0.17578 l0.23438 -0.15625 t0.15625 -0.23438 q0.15625 -0.078125 0.2734375 -0.15625 t0.27344 -0.15625 q0.3515625 -0.3515625 0.72265625 -0.60546875 t0.68359 -0.56641 q0.4296875 -0.1953125 0.5078125 -0.44921875 t0.42969 -0.29297 z M73.554875 31.0937 q-0.3515625 0.1171875 -0.9765625 0.234375 q-0.1171875 0.1953125 -0.2734375 0.390625 t-0.39063 0.15625 q0.234375 0.4296875 0.3125 0.3125 t0.27344 -0.15625 q0.46875 -0.3125 0.60546875 -0.5859375 t0.44922 -0.35156 z M73.671875 28.086 l0 -0.52734 t-0.3125 -0.29297 q0.1171875 0.3125 -0.078125 0.5078125 q-0.234375 -0.0390625 -0.3515625 0.05859375 t-0.21484 0.25391 t-0.21484 0.27344 t-0.3125 0.039063 q0.0390625 0.078125 0 0.234375 t0.039063 0.19531 q0.1953125 -0.0390625 0.3515625 -0.1953125 t0.3125 -0.11719 q0 0.3125 -0.3125 0.390625 q-0.0390625 -0.1171875 -0.29296875 0.13671875 t-0.48828 0.44922 q-0.3125 -0.0390625 -0.56640625 0.25390625 t-0.52734 0.29297 q-0.5078125 0.390625 -0.76171875 0.64453125 t-0.68359 0.37109 q-0.234375 0.234375 -0.52734375 0.5078125 t-0.64453 0.35156 q0.1171875 0.078125 0.13671875 0.21484375 t0.019531 0.27344 t0.039063 0.27344 t0.19531 0.17578 q0.390625 -0.234375 0.5859375 -0.60546875 t0.70313 -0.41016 q0.1953125 -0.2734375 0.44921875 -0.546875 t0.60547 -0.23438 q0.078125 -0.2734375 0.25390625 -0.3515625 t0.25391 -0.27344 q0.3125 -0.1171875 0.44921875 -0.29296875 t0.37109 -0.17578 q0.3125 -0.2734375 0.46875 -0.390625 t0.54688 -0.039063 q-0.078125 -0.390625 0.13671875 -0.5078125 t0.29297 -0.50781 q-0.15625 -0.078125 -0.29296875 -0.01953125 t-0.25391 -0.019531 q0.078125 -0.15625 0.29296875 -0.1953125 t0.33203 -0.19531 z M73.632875 33.9844 q-0.1953125 0.0390625 -0.2734375 0.15625 t-0.3125 -0.039063 q-0.0390625 0.3125 -0.2734375 0.4296875 t-0.3125 0.35156 q0.1171875 -0.1171875 0.33203125 -0.17578125 t0.41016 -0.11719 t0.33203 -0.19531 t0.097656 -0.41016 z M72.070275 31.289099999999998 q-0.078125 -0.3125 -0.25390625 -0.13671875 t-0.17578 0.29297 q-0.703125 0.3515625 -1.1328125 0.625 t-0.89844 0.58594 q0 0.1171875 -0.13671875 0.234375 t-0.33203 0.19531 t-0.39063 0.17578 t-0.3125 0.21484 q0.078125 0.1953125 0.0390625 0.390625 t0 0.50781 q0.1171875 0 0.17578125 -0.05859375 t0.097656 -0.13672 t0.097656 -0.13672 t0.17578 -0.019531 q0.0390625 -0.1953125 0.17578125 -0.2734375 t0.21484 -0.19531 q0.1171875 0.0390625 0.2734375 0.1171875 t0.27344 -0.078125 q-0.1171875 -0.1171875 -0.234375 -0.1171875 t-0.19531 -0.11719 q0.703125 -0.4296875 1.2890625 -0.9765625 t1.25 -1.0938 z M73.593875 35.6641 q-0.234375 0.234375 -0.41015625 0.3125 t-0.37109 0.039063 q-0.390625 0.390625 -0.56640625 0.41015625 t-0.058594 0.33203 q0.3515625 -0.078125 0.5859375 -0.2734375 t0.66406 -0.19531 q-0.0390625 -0.15625 0.1171875 -0.2734375 t0.039063 -0.35156 z M74.960875 38.8672 q-0.1953125 -0.078125 -0.37109375 -0.15625 t-0.13672 -0.35156 q-0.3125 -0.15625 -0.390625 -0.46875 t-0.39063 -0.58594 q0 0.3125 -0.21484375 0.1953125 t-0.33203 0.078125 q-0.0390625 0.15625 0.05859375 0.21484375 t0.13672 0.17578 q-0.078125 0.1171875 -0.1953125 0.1953125 t-0.19531 0.23438 q0.1171875 0.0390625 0.33203125 -0.078125 t0.41016 -0.11719 q0.078125 0.1171875 0.1953125 0.13671875 t0.15625 0.17578 q-0.078125 -0.078125 -0.234375 -0.078125 t-0.19531 0.11719 q0.078125 0.1171875 -0.078125 0.15625 t-0.3125 0.19531 q0.3515625 0.1953125 0.859375 0.1171875 t0.89844 -0.15625 z M73.671875 32.6562 q-0.1171875 -0.15625 -0.1171875 -0.33203125 t-0.15625 -0.25391 q-0.3125 0.1953125 -0.625 0.41015625 t-0.54688 0.48828 q-0.1171875 0.2734375 -0.25390625 0.2734375 t-0.29297 0.039063 q0 0.234375 -0.13671875 0.37109375 t-0.33203 0.058594 q0.15625 0.234375 0.46875 0.0390625 t0.50781 -0.27344 q0.078125 0.3515625 -0.17578125 0.4296875 t-0.37109 0.35156 q-0.4296875 0.078125 -0.56640625 0.25390625 t-0.48828 0.13672 l-0.50781 0.27344 q-0.3515625 0.3125 -0.4296875 0.4296875 t-0.3125 0.078125 q-0.1953125 0.3515625 -0.52734375 0.5859375 t-0.68359 0.46875 q0.078125 0.390625 0 0.78125 t-0.42969 0.46875 q0 0.3515625 -0.17578125 0.37109375 t0.019531 0.097656 q-0.390625 0.1953125 -0.48828125 0.234375 t-0.13672 0.11719 q0.234375 0.2734375 0.546875 0.2734375 t0.50781 -0.15625 q1.3671875 0.1953125 2.34375 0.3125 t2.0703 -0.039063 q-0.078125 -0.15625 -0.0390625 -0.2734375 t0.097656 -0.21484 t0.13672 -0.21484 t0.039063 -0.23438 q0.234375 -0.3125 0.41015625 -0.6640625 t0.41016 -0.625 q-0.1953125 -0.078125 -0.52734375 -0.05859375 t-0.44922 0.21484 q0.15625 0 0.2734375 -0.05859375 t0.19531 0.058594 q-0.15625 0.1171875 -0.390625 0.1953125 t-0.42969 0.078125 q-0.1171875 0.1953125 -0.29296875 0.3125 t-0.37109 0.21484 t-0.37109 0.21484 t-0.25391 0.3125 q-0.3515625 0.2734375 -0.5859375 0.33203125 t-0.50781 0.13672 q0.078125 -0.6640625 0.4296875 -0.87890625 t0.66406 -0.52734 q0.2734375 -0.078125 0.3515625 -0.3125 t0.3125 -0.15625 q0.15625 -0.3125 0.390625 -0.48828125 t0.46875 -0.37109 q0.234375 -0.0390625 0.29296875 -0.13671875 t0.13672 -0.21484 q0.1953125 -0.0390625 0.1953125 -0.13671875 t0.23438 -0.019531 q0.1953125 -0.1953125 0.2734375 -0.546875 q-0.15625 -0.0390625 -0.234375 0.01953125 t-0.17578 0.13672 t-0.17578 0.15625 t-0.23438 0 q-0.234375 0.4296875 -0.5859375 0.2734375 q-0.078125 0.3125 -0.29296875 0.3515625 t-0.52734 0.11719 q-0.0390625 0.3125 -0.37109375 0.3515625 t-0.44922 0.11719 q-0.390625 0.5859375 -0.95703125 0.859375 t-0.99609 0.74219 q-0.078125 -0.078125 -0.17578125 -0.13671875 t-0.13672 -0.17578 q0.234375 -0.4296875 0.625 -0.60546875 t0.82031 -0.44922 q0.3515625 -0.1953125 0.546875 -0.44921875 t0.46875 -0.29297 q0.078125 -0.1953125 0.1953125 -0.33203125 t0.35156 -0.13672 q0.6640625 -0.625 1.03515625 -1.03515625 t0.80078 -0.76172 q-0.1171875 -0.1171875 -0.1953125 -0.01953125 t-0.3125 0.019531 q0 -0.3515625 0.1953125 -0.390625 t0.3125 0.039063 q0.0390625 -0.3125 0.33203125 -0.33203125 t0.33203 -0.29297 z M86.249875 12.969000000000001 q-0.3125 0 -0.44921875 0.078125 t-0.44922 0.11719 q0.46875 -0.2734375 0.546875 -0.29296875 t0.23438 -0.13672 z M88.788875 15.390999999999998 q-0.4296875 0.1953125 -0.5859375 0.2734375 t-0.3125 -0.039063 q0.078125 -0.078125 0.1953125 -0.09765625 t0.11719 -0.21484 q0.1953125 0.078125 0.3125 0.0390625 t0.27344 0.039063 z M86.874875 14.414000000000001 q-0.1953125 0.078125 -0.3125 0.1171875 t-0.3125 0.11719 q-0.0390625 -0.234375 0.15625 -0.25390625 t0.27344 -0.13672 z M85.273875 13.164000000000001 q0 0.15625 -0.15625 0.1953125 t-0.23438 0 q0.234375 -0.2734375 0.2734375 -0.234375 t0.11719 0.039063 z M86.523875 18.828 q-0.3125 0.1953125 -0.46875 0.1953125 t-0.23438 0.078125 q0.3515625 -0.1953125 0.41015625 -0.25390625 t-0.019531 -0.097656 z M72.538875 11.797 q-0.390625 0.078125 -0.64453125 0.33203125 t-0.64453 0.21484 q-0.1953125 0.2734375 -0.48828125 0.37109375 t-0.60547 0.17578 q-0.078125 0.15625 -0.13671875 0.1953125 t-0.25391 0 q0.1953125 -0.1953125 0.4296875 -0.3125 t0.35156 -0.39063 q0.3125 0 0.5078125 -0.1953125 t0.35156 -0.27344 q-0.1953125 -0.15625 -0.44921875 0.01953125 t-0.64453 0.097656 q0.3125 -0.3125 0.87890625 -0.390625 t0.91797 -0.35156 q0.546875 -0.078125 0.4296875 0.5078125 z M72.226575 15.859000000000002 q-0.078125 0.1953125 -0.234375 0.17578125 t-0.42969 -0.019531 q0.3515625 -0.234375 0.2734375 -0.2734375 t-0.039063 -0.11719 q0.15625 0.078125 0.1953125 0.1953125 t0.23438 0.039063 z M72.460875 16.523 q-0.078125 0.078125 -0.17578125 0.13671875 t-0.13672 0.17578 q-0.390625 0.3125 -0.5859375 0.33203125 t-0.27344 0.21484 q-0.15625 -0.078125 -0.234375 0.01953125 t-0.19531 -0.019531 q0.2734375 -0.1171875 0.48828125 -0.37109375 t0.60547 -0.17578 q0.3515625 -0.15625 0.4296875 -0.46875 z M70.390675 18.125 q-0.2734375 -0.078125 -0.3125 0 t-0.19531 0 q-0.0390625 -0.1953125 0.17578125 -0.17578125 t0.17578 -0.25391 q0.1171875 0.078125 0.09765625 0.1953125 t0.058594 0.23438 z M93.9453175 21.211 q0.2734375 -0.1171875 0.37109375 -0.25390625 t0.33203 -0.25391 q0.5078125 0.5078125 1.42578125 0.87890625 t1.6211 0.80078 q0.5078125 0.3515625 0.95703125 0.546875 t0.60547 0.58594 q0.3125 0.15625 0.64453125 0.37109375 t0.64453 0.48828 q0.15625 0.0390625 0.29296875 0.09765625 t0.25391 0.019531 q0.625 0.3125 1.15234375 0.625 t0.72266 0.625 q0.078125 0 0.33203125 0.17578125 t0.52734 0.37109 q0.3125 0.234375 0.6640625 0.5078125 q-0.6640625 0.546875 -1.25 0.9765625 q-0.5078125 0.390625 -1.0546875 0.80078125 l-0.85938 0.64453 q-0.2734375 0.1953125 -0.64453125 0.3125 t-0.64453 0.3125 q-0.4296875 0.3125 -0.76171875 0.6640625 t-0.83984 0.625 q-0.390625 0.234375 -0.8984375 0.48828125 t-0.9375 0.44922 q-0.5078125 0.234375 -1.1328125 0.703125 t-0.74219 0.82031 q-0.8984375 -0.1953125 -0.78125 -1.0546875 q0.859375 -0.78125 2.109375 -1.54296875 t2.3828 -1.4258 q0.234375 -0.15625 0.41015625 -0.33203125 t0.41016 -0.29297 q0.8984375 -0.546875 1.875 -0.99609375 t1.5234 -1.1523 q-0.546875 -0.46875 -1.38671875 -0.9765625 t-1.7383 -0.9375 q-1.25 -0.6640625 -2.5390625 -1.54296875 t-2.4219 -1.4648 q-0.390625 -0.0390625 -0.5859375 -0.2734375 t-0.039063 -0.39063 z"/></g>
			</g>
		</svg>
	